<svg width="200" height="240" viewBox="0 0 200 240" fill="none" xmlns="http://www.w3.org/2000/svg">
<g opacity="0.3">
<path opacity="0.3" d="M139.71 49.24C134.242 49.2347 128.999 47.0609 125.132 43.1953C121.264 39.3297 119.088 34.0881 119.08 28.62V0H26.9099C19.7729 0 12.9283 2.83517 7.88171 7.88177C2.83511 12.9284 0 19.773 0 26.91V189.13C0.00795214 196.261 2.84691 203.097 7.89294 208.135C12.939 213.174 19.7791 216.003 26.9099 216H137.51C144.647 216 151.491 213.165 156.538 208.118C161.585 203.072 164.42 196.227 164.42 189.09V49.24H139.71Z" fill="#FF9908"/>
</g>
<path d="M164.42 49.24H139.71C134.242 49.2347 128.999 47.0609 125.132 43.1953C121.264 39.3297 119.088 34.0881 119.08 28.62V0L164.42 49.24Z" fill="#FF9908"/>
<path d="M183.94 170.6H58.8999C50.0302 170.6 42.84 177.79 42.84 186.66V223.94C42.84 232.81 50.0302 240 58.8999 240H183.94C192.81 240 200 232.81 200 223.94V186.66C200 177.79 192.81 170.6 183.94 170.6Z" fill="#FF9908"/>
<path d="M87.71 213.37V220.64H80.1799V213.37H87.71Z" fill="white"/>
<path d="M110.16 215.16H98.88L97.01 220.64H89.36L100.36 190.79H108.71L119.71 220.64H111.97L110.16 215.16ZM108.28 209.63L104.54 198.57L100.76 209.63H108.28Z" fill="white"/>
<path d="M128.19 190.57L135.55 213.2L142.91 190.57H150.71L140.25 220.64H130.85L120.43 190.57H128.19Z" fill="white"/>
<path d="M160.77 190.57V220.64H153.5V190.57H160.77Z" fill="white"/>
<path d="M82.0499 149.83C71.1403 149.817 60.6814 145.477 52.9672 137.763C45.2529 130.049 40.9131 119.59 40.8999 108.68C40.9131 97.7704 45.2529 87.3114 52.9672 79.5972C60.6814 71.8829 71.1403 67.5433 82.0499 67.53C92.9595 67.5433 103.419 71.8829 111.133 79.5972C118.847 87.3114 123.187 97.7704 123.2 108.68C123.187 119.59 118.847 130.049 111.133 137.763C103.419 145.477 92.9595 149.817 82.0499 149.83ZM82.0499 74.74C73.0534 74.7559 64.4298 78.3368 58.0682 84.6983C51.7067 91.0599 48.1258 99.6834 48.11 108.68C48.11 117.687 51.6839 126.326 58.0471 132.7C64.4104 139.075 73.043 142.664 82.0499 142.68C91.0569 142.664 99.6896 139.075 106.053 132.7C112.416 126.326 115.99 117.687 115.99 108.68C115.974 99.6834 112.393 91.0599 106.032 84.6983C99.6701 78.3368 91.0465 74.7559 82.0499 74.74Z" fill="#FF9908"/>
<path d="M93.85 105.86L84.2799 100.34C83.7846 100.054 83.2227 99.9035 82.6508 99.9033C82.0788 99.9032 81.5168 100.053 81.0214 100.339C80.5259 100.625 80.1142 101.036 79.8279 101.531C79.5415 102.026 79.3906 102.588 79.39 103.16V114.21C79.3906 114.782 79.5415 115.344 79.8279 115.839C80.1142 116.334 80.5259 116.745 81.0214 117.031C81.5168 117.317 82.0788 117.467 82.6508 117.467C83.2227 117.467 83.7846 117.316 84.2799 117.03L93.85 111.5C94.344 111.214 94.7541 110.802 95.0392 110.307C95.3243 109.812 95.4744 109.251 95.4744 108.68C95.4744 108.109 95.3243 107.548 95.0392 107.053C94.7541 106.558 94.344 106.147 93.85 105.86Z" fill="#FF9908"/>
<path d="M74.48 99.48H70.98C69.6766 99.48 68.62 100.537 68.62 101.84V115.53C68.62 116.833 69.6766 117.89 70.98 117.89H74.48C75.7834 117.89 76.84 116.833 76.84 115.53V101.84C76.84 100.537 75.7834 99.48 74.48 99.48Z" fill="#FF9908"/>
</svg>
