<svg width="200" height="240" viewBox="0 0 200 240" fill="none" xmlns="http://www.w3.org/2000/svg">
<g opacity="0.3">
<path opacity="0.3" d="M139.67 49.24C134.201 49.2373 128.957 47.0644 125.089 43.1982C121.221 39.3321 119.045 34.0889 119.04 28.62V0H26.9099C23.3752 -2.4406e-07 19.8751 0.696337 16.6096 2.04932C13.3441 3.4023 10.3771 5.38537 7.87818 7.88525C5.37922 10.3851 3.39718 13.3529 2.04541 16.6189C0.693646 19.8849 -0.00131167 23.3853 1.85854e-06 26.92V189.13C-0.00131167 192.665 0.693646 196.165 2.04541 199.431C3.39718 202.697 5.37922 205.665 7.87818 208.165C10.3771 210.665 13.3441 212.648 16.6096 214.001C19.8751 215.354 23.3752 216.05 26.9099 216.05H137.51C141.045 216.05 144.545 215.354 147.81 214.001C151.076 212.648 154.043 210.665 156.542 208.165C159.041 205.665 161.023 202.697 162.374 199.431C163.726 196.165 164.421 192.665 164.42 189.13V49.25L139.67 49.24Z" fill="#A140FF"/>
</g>
<path d="M164.42 49.24H139.67C134.201 49.2373 128.957 47.0644 125.089 43.1982C121.221 39.3321 119.045 34.0889 119.04 28.62V0L164.42 49.24Z" fill="#A140FF"/>
<path d="M183.94 170.6H58.8999C50.0302 170.6 42.8398 177.79 42.8398 186.66V223.94C42.8398 232.81 50.0302 240 58.8999 240H183.94C192.81 240 200 232.81 200 223.94V186.66C200 177.79 192.81 170.6 183.94 170.6Z" fill="#A140FF"/>
<path d="M78.5999 213.37V220.65H71.0698V213.37H78.5999Z" fill="white"/>
<path d="M104.74 207.8C105.794 209.114 106.357 210.755 106.33 212.44C106.382 213.569 106.178 214.696 105.733 215.735C105.288 216.774 104.613 217.699 103.76 218.44C102.04 219.88 99.5799 220.61 96.3799 220.61H82.3799V190.54H96.0298C99.0898 190.54 101.457 191.207 103.13 192.54C103.966 193.226 104.63 194.1 105.066 195.09C105.502 196.08 105.698 197.16 105.64 198.24C105.703 199.872 105.194 201.474 104.2 202.77C103.248 203.972 101.908 204.806 100.41 205.13C102.116 205.498 103.645 206.44 104.74 207.8ZM89.6599 202.87H94.4199C96.9466 202.87 98.21 201.79 98.21 199.63C98.21 197.47 96.9198 196.393 94.3398 196.4H89.6599V202.87ZM98.8899 211.42C98.9132 210.946 98.8302 210.473 98.6467 210.035C98.4633 209.597 98.1841 209.206 97.8298 208.89C96.9726 208.233 95.9078 207.907 94.8298 207.97H89.6799V214.73H94.8699C97.5499 214.73 98.8899 213.627 98.8899 211.42Z" fill="white"/>
<path d="M143.97 190.79V220.65H136.7V202L130.24 220.68H123.94L117.43 201.96V220.68H110.14V190.82H119.03L127.15 211.62L135.15 190.82L143.97 190.79Z" fill="white"/>
<path d="M156.27 210.1V220.65H148.99V190.58H160.77C164.35 190.58 167.073 191.463 168.94 193.23C169.886 194.16 170.625 195.28 171.109 196.515C171.594 197.751 171.812 199.075 171.75 200.4C171.781 202.149 171.347 203.875 170.49 205.4C169.625 206.895 168.328 208.094 166.77 208.84C164.899 209.732 162.842 210.164 160.77 210.1H156.27ZM164.35 200.4C164.35 197.733 162.89 196.4 159.97 196.4H156.27V204.23H159.97C162.89 204.257 164.35 202.98 164.35 200.4Z" fill="white"/>
<path d="M104.3 146.41H60.1399C55.8158 146.405 51.6704 144.685 48.6128 141.627C45.5552 138.57 43.8351 134.424 43.8298 130.1V85.9301C43.8351 81.606 45.5552 77.4605 48.6128 74.403C51.6704 71.3454 55.8158 69.6253 60.1399 69.62H104.31C108.633 69.6253 112.778 71.3457 115.833 74.4036C118.889 77.4614 120.607 81.6069 120.61 85.9301V130.1C120.607 134.425 118.888 138.572 115.83 141.63C112.772 144.688 108.625 146.407 104.3 146.41ZM60.1399 76.83C57.7272 76.8326 55.4143 77.7923 53.7083 79.4983C52.0022 81.2043 51.0424 83.5174 51.0398 85.9301V130.1C51.0424 132.513 52.0022 134.826 53.7083 136.532C55.4143 138.238 57.7272 139.197 60.1399 139.2H104.31C106.721 139.195 109.031 138.234 110.735 136.528C112.439 134.822 113.397 132.511 113.4 130.1V85.9301C113.397 83.5191 112.439 81.2076 110.735 79.5018C109.031 77.7961 106.721 76.8352 104.31 76.83H60.1399Z" fill="#A140FF"/>
<path d="M117 121.7V130.1C116.997 133.467 115.658 136.696 113.277 139.077C110.896 141.458 107.667 142.797 104.3 142.8H60.1399C56.7707 142.8 53.5393 141.462 51.156 139.081C48.7727 136.699 47.4326 133.469 47.4299 130.1V116C54.5099 114.48 65.2799 114 78.3499 119.22L86.45 111.5L91.97 125.5C91.97 125.5 93.45 120.35 98.23 121.08C103.01 121.81 110.75 124.4 114.06 122.19C114.949 121.678 115.993 121.504 117 121.7Z" fill="#A140FF"/>
<path d="M101.53 94.95C104.242 94.95 106.44 92.7518 106.44 90.04C106.44 87.3283 104.242 85.13 101.53 85.13C98.8181 85.13 96.6199 87.3283 96.6199 90.04C96.6199 92.7518 98.8181 94.95 101.53 94.95Z" fill="#A140FF"/>
</svg>
