<svg width="200" height="240" viewBox="0 0 200 240" fill="none" xmlns="http://www.w3.org/2000/svg">
<g opacity="0.3">
<path opacity="0.3" d="M139.67 49.24C134.203 49.2347 128.961 47.0606 125.095 43.1947C121.229 39.3288 119.055 34.0871 119.05 28.62V0H26.91C23.3753 -2.4406e-07 19.8752 0.696337 16.6097 2.04932C13.3442 3.4023 10.3772 5.38537 7.87824 7.88525C5.37928 10.3851 3.3973 13.3529 2.04553 16.6189C0.693768 19.8849 -0.00131167 23.3853 1.85821e-06 26.92V189.13C0.0106002 196.26 2.85042 203.094 7.89588 208.132C12.9413 213.17 19.7799 216 26.91 216H137.52C144.652 216 151.492 213.169 156.538 208.129C161.583 203.089 164.422 196.252 164.43 189.12V49.24H139.67Z" fill="#3CBA32"/>
</g>
<path d="M164.43 49.24H139.67C134.203 49.2347 128.961 47.0606 125.095 43.1947C121.229 39.3288 119.055 34.0871 119.05 28.62V0L164.43 49.24Z" fill="#3CBA32"/>
<path d="M183.94 170.6H58.9C50.0303 170.6 42.84 177.79 42.84 186.66V223.94C42.84 232.81 50.0303 240 58.9 240H183.94C192.81 240 200 232.81 200 223.94V186.66C200 177.79 192.81 170.6 183.94 170.6Z" fill="#3CBA32"/>
<path d="M79.08 213.37V220.65H71.55V213.37H79.08Z" fill="white"/>
<path d="M106.11 193.3C108.648 195.358 110.373 198.249 110.98 201.46H103.28C102.761 200.128 101.847 198.987 100.66 198.19C99.4051 197.369 97.9286 196.954 96.43 197C95.451 196.969 94.478 197.163 93.5865 197.569C92.695 197.975 91.9092 198.581 91.29 199.34C89.8934 201.115 89.1833 203.334 89.29 205.59C89.18 207.84 89.8907 210.054 91.29 211.82C91.9117 212.575 92.6985 213.176 93.5897 213.579C94.481 213.981 95.4528 214.173 96.43 214.14C97.9151 214.178 99.3765 213.763 100.62 212.95C101.795 212.158 102.707 211.033 103.24 209.72H110.94C110.321 212.92 108.597 215.801 106.07 217.86C103.349 219.943 99.9835 221.005 96.56 220.86C93.8666 220.92 91.2068 220.253 88.86 218.93C86.6626 217.655 84.8836 215.768 83.74 213.5C82.4904 211.022 81.8689 208.275 81.93 205.5C81.8771 202.742 82.4984 200.013 83.74 197.55C84.8836 195.282 86.6626 193.395 88.86 192.12C91.2068 190.797 93.8666 190.13 96.56 190.19C100.01 190.071 103.391 191.173 106.11 193.3Z" fill="white"/>
<path d="M130.5 220.65L123.99 209.29H122.33V220.65H115.06V190.58H127.48C129.548 190.522 131.601 190.943 133.48 191.81C135.024 192.54 136.313 193.718 137.18 195.19C138.017 196.689 138.442 198.383 138.41 200.1C138.467 202.111 137.832 204.081 136.61 205.68C135.265 207.295 133.41 208.403 131.35 208.82L138.5 220.65H130.5ZM122.33 204.31H126.84C127.991 204.392 129.131 204.034 130.03 203.31C130.385 202.934 130.658 202.488 130.83 202.001C131.002 201.514 131.07 200.995 131.03 200.48C131.065 199.968 130.994 199.454 130.822 198.971C130.65 198.487 130.38 198.045 130.03 197.67C129.147 196.931 128.007 196.572 126.86 196.67H122.33V204.31Z" fill="white"/>
<path d="M167.27 213.39C166.021 215.666 164.129 217.523 161.83 218.73C159.248 220.06 156.373 220.72 153.47 220.65H142.11V190.58H153.43C156.335 190.504 159.213 191.147 161.81 192.45C164.097 193.633 165.983 195.467 167.23 197.72C168.523 200.124 169.174 202.821 169.12 205.55C169.185 208.279 168.548 210.978 167.27 213.39ZM159.44 211.88C160.255 211.049 160.887 210.056 161.293 208.966C161.7 207.875 161.872 206.712 161.8 205.55C161.872 204.387 161.699 203.222 161.293 202.13C160.886 201.038 160.255 200.043 159.44 199.21C157.618 197.62 155.244 196.811 152.83 196.96H149.43V214.14H152.88C155.275 214.273 157.627 213.462 159.43 211.88H159.44Z" fill="white"/>
<path d="M81.95 62C81.95 62 105.43 67 83.68 140.49H80.68C80.68 140.49 59.78 72.8 81.95 62Z" fill="#3CBA32"/>
<path d="M87.14 62.72C87.14 62.72 119.98 75.1101 85.56 140.06C85.56 140.06 137.55 76.69 87.14 62.72Z" fill="#3CBA32"/>
<path d="M100.82 67.1899C100.82 67.1899 132.36 82.88 89.59 137.61C89.59 137.61 138.7 84.7599 100.82 67.1899Z" fill="#3CBA32"/>
<path d="M77.29 62.72C77.29 62.72 44.45 75.1101 78.87 140.06C78.87 140.06 26.88 76.69 77.29 62.72Z" fill="#3CBA32"/>
<path d="M63.61 67.1899C63.61 67.1899 32.07 82.88 74.84 137.61C74.84 137.61 25.73 84.7599 63.61 67.1899Z" fill="#3CBA32"/>
<path d="M86.62 154.03H78.16L75.62 145.96H89.16L86.62 154.03Z" fill="#3CBA32"/>
</svg>
