<svg width="200" height="241" viewBox="0 0 200 241" fill="none" xmlns="http://www.w3.org/2000/svg">
<g opacity="0.3">
<path opacity="0.3" d="M139.67 49.25C134.2 49.2447 128.956 47.0695 125.088 43.2018C121.22 39.3341 119.045 34.0898 119.04 28.62V0H26.9099C19.7729 0 12.9282 2.83511 7.88159 7.88171C2.83499 12.9283 0 19.7731 0 26.91V189.13C0 196.267 2.83499 203.112 7.88159 208.158C12.9282 213.205 19.7729 216.04 26.9099 216.04H137.51C144.647 216.04 151.491 213.205 156.538 208.158C161.585 203.112 164.42 196.267 164.42 189.13V49.25H139.67Z" fill="#A140FF"/>
</g>
<path d="M164.42 49.25H139.67C134.2 49.2447 128.956 47.0695 125.088 43.2018C121.22 39.3341 119.045 34.0898 119.04 28.62V0L164.42 49.25Z" fill="#A140FF"/>
<path d="M183.94 170.61H58.8999C50.0302 170.61 42.8398 177.8 42.8398 186.67V223.95C42.8398 232.82 50.0302 240.01 58.8999 240.01H183.94C192.81 240.01 200 232.82 200 223.95V186.67C200 177.8 192.81 170.61 183.94 170.61Z" fill="#A140FF"/>
<path d="M89.1399 213.38V220.65H81.6099V213.38H89.1399Z" fill="white"/>
<path d="M118.14 213.4C116.891 215.673 114.998 217.527 112.7 218.73C110.118 220.061 107.243 220.721 104.34 220.65H92.9399V190.58H104.29C107.195 190.503 110.073 191.146 112.67 192.45C114.955 193.636 116.84 195.469 118.09 197.72C119.386 200.123 120.041 202.82 119.99 205.55C120.054 208.282 119.417 210.984 118.14 213.4ZM110.32 211.89C111.132 211.055 111.762 210.06 112.168 208.969C112.574 207.877 112.749 206.713 112.68 205.55C112.749 204.387 112.574 203.223 112.168 202.131C111.762 201.04 111.132 200.045 110.32 199.21C108.494 197.62 106.116 196.812 103.7 196.96H100.26V214.14H103.7C106.099 214.275 108.457 213.468 110.27 211.89H110.32Z" fill="white"/>
<path d="M131.38 215.08H141.08V220.65H124.08V190.58H131.35L131.38 215.08Z" fill="white"/>
<path d="M151.71 215.08H161.41V220.65H144.41V190.58H151.68L151.71 215.08Z" fill="white"/>
<path d="M68.3799 159.4C67.2395 159.4 66.1458 158.947 65.3394 158.141C64.5329 157.334 64.0798 156.24 64.0798 155.1V148.49C64.0798 147.926 64.1913 147.367 64.4075 146.846C64.6237 146.325 64.9404 145.852 65.3398 145.453C65.7393 145.055 66.2135 144.739 66.7351 144.524C67.2567 144.309 67.8157 144.199 68.3799 144.2C69.5177 144.2 70.6088 144.652 71.4133 145.457C72.2179 146.261 72.6699 147.352 72.6699 148.49V155.1C72.6699 156.239 72.2183 157.331 71.4141 158.137C70.6098 158.943 69.5186 159.397 68.3799 159.4Z" fill="#A140FF"/>
<path d="M68.3799 106.1C67.8157 106.101 67.2567 105.991 66.7351 105.776C66.2135 105.561 65.7393 105.246 65.3398 104.847C64.9404 104.449 64.6237 103.975 64.4075 103.454C64.1913 102.933 64.0798 102.374 64.0798 101.81V94.12C64.0798 92.9796 64.5329 91.8859 65.3394 91.0795C66.1458 90.2731 67.2395 89.8199 68.3799 89.8199C69.5186 89.8226 70.6098 90.2769 71.4141 91.083C72.2183 91.8891 72.6699 92.9813 72.6699 94.12V101.81C72.6699 102.948 72.2179 104.039 71.4133 104.844C70.6088 105.648 69.5177 106.1 68.3799 106.1Z" fill="#A140FF"/>
<path d="M83.6299 155.32C82.8745 155.319 82.1325 155.12 81.478 154.743C80.8235 154.366 80.2794 153.823 79.8999 153.17L76.7 147.61C76.1307 146.623 75.9762 145.451 76.2705 144.35C76.5649 143.25 77.2839 142.311 78.2698 141.74C79.2578 141.172 80.4313 141.019 81.532 141.315C82.6327 141.611 83.5707 142.332 84.1399 143.32L87.3499 148.87C87.9183 149.858 88.0712 151.031 87.7749 152.132C87.4786 153.233 86.7574 154.171 85.7698 154.74C85.1203 155.119 84.382 155.319 83.6299 155.32Z" fill="#A140FF"/>
<path d="M57.0798 109.32C56.3239 109.321 55.5813 109.123 54.9265 108.746C54.2716 108.368 53.7277 107.825 53.3498 107.17L49.4199 100.35C49.1369 99.8625 48.9531 99.3239 48.8789 98.7651C48.8046 98.2063 48.8414 97.6383 48.9873 97.0938C49.1331 96.5493 49.3851 96.039 49.7287 95.5922C50.0724 95.1454 50.5011 94.7708 50.9899 94.49C51.4782 94.2068 52.0175 94.0228 52.5771 93.9484C53.1367 93.874 53.7054 93.9108 54.2507 94.0567C54.796 94.2025 55.3071 94.4546 55.7548 94.7984C56.2026 95.1422 56.5781 95.5709 56.8598 96.0601L60.7898 102.88C61.073 103.368 61.2571 103.908 61.3315 104.467C61.4059 105.027 61.369 105.596 61.2231 106.141C61.0772 106.686 60.8254 107.197 60.4816 107.645C60.1379 108.093 59.7091 108.468 59.2199 108.75C58.5691 109.125 57.8308 109.321 57.0798 109.32Z" fill="#A140FF"/>
<path d="M94.7899 144.15C94.0348 144.148 93.2935 143.948 92.64 143.57L87.08 140.36C86.0947 139.791 85.3758 138.854 85.0814 137.755C84.787 136.656 84.9413 135.485 85.5101 134.5C86.0793 133.512 87.0173 132.791 88.118 132.495C89.2188 132.199 90.392 132.352 91.38 132.92L96.9401 136.13C97.926 136.701 98.645 137.64 98.9393 138.74C99.2337 139.841 99.0794 141.013 98.5101 142C98.1346 142.654 97.5926 143.198 96.9393 143.576C96.286 143.953 95.5445 144.151 94.7899 144.15Z" fill="#A140FF"/>
<path d="M48.7798 117.6C48.0281 117.597 47.2904 117.397 46.6399 117.02L39.8198 113.09C38.8339 112.519 38.1149 111.58 37.8206 110.48C37.5262 109.379 37.6807 108.207 38.25 107.22C38.8192 106.232 39.7572 105.511 40.8579 105.215C41.9586 104.919 43.1319 105.071 44.1199 105.64L50.9399 109.58C51.9259 110.151 52.6449 111.09 52.9392 112.19C53.2336 113.291 53.0793 114.463 52.51 115.45C52.1321 116.104 51.5882 116.648 50.9334 117.025C50.2785 117.403 49.5356 117.601 48.7798 117.6Z" fill="#A140FF"/>
<path d="M98.8699 128.91H92.25C91.1104 128.907 90.018 128.453 89.2122 127.648C88.4063 126.842 87.9526 125.75 87.95 124.61C87.9526 123.471 88.4068 122.38 89.2129 121.576C90.019 120.772 91.1113 120.32 92.25 120.32H98.8699C100.009 120.32 101.101 120.772 101.907 121.576C102.713 122.38 103.167 123.471 103.17 124.61C103.167 125.75 102.713 126.842 101.907 127.648C101.102 128.453 100.009 128.907 98.8699 128.91Z" fill="#A140FF"/>
<path d="M45.5698 128.91H37.8899C36.7503 128.907 35.6581 128.453 34.8523 127.648C34.0465 126.842 33.5925 125.75 33.5898 124.61C33.5925 123.471 34.0467 122.38 34.8528 121.576C35.6589 120.772 36.7512 120.32 37.8899 120.32H45.5698C46.7076 120.32 47.7987 120.772 48.6033 121.577C49.4078 122.381 49.8599 123.472 49.8599 124.61C49.8599 125.749 49.4082 126.841 48.604 127.647C47.7998 128.453 46.7085 128.907 45.5698 128.91Z" fill="#A140FF"/>
<path d="M88.76 117.14C88.0042 117.141 87.2613 116.943 86.6065 116.565C85.9516 116.188 85.4077 115.645 85.0298 114.99C84.7486 114.501 84.5665 113.962 84.4937 113.404C84.4209 112.845 84.459 112.277 84.6057 111.732C84.7525 111.188 85.005 110.678 85.3489 110.232C85.6928 109.785 86.1212 109.411 86.6099 109.13L92.6099 105.64C93.5979 105.071 94.7714 104.919 95.8721 105.215C96.9728 105.511 97.9108 106.232 98.48 107.22C99.0493 108.207 99.2036 109.379 98.9092 110.48C98.6148 111.58 97.8959 112.519 96.9099 113.09L90.9099 116.57C90.2568 116.948 89.5147 117.145 88.76 117.14Z" fill="#A140FF"/>
<path d="M41.97 144.15C41.2158 144.149 40.475 143.95 39.822 143.573C39.1691 143.196 38.6271 142.653 38.25 142C37.6807 141.013 37.5262 139.841 37.8206 138.74C38.1149 137.64 38.8339 136.701 39.8198 136.13L46.1799 132.46C47.1674 131.893 48.3389 131.741 49.4387 132.035C50.5385 132.329 51.4771 133.046 52.0498 134.03C52.6191 135.017 52.7736 136.189 52.4793 137.29C52.1849 138.39 51.4659 139.329 50.48 139.9L44.1199 143.57C43.4664 143.948 42.7251 144.148 41.97 144.15Z" fill="#A140FF"/>
<path d="M68.9099 152.79H68.22C63.3052 152.684 58.51 151.253 54.3398 148.65C50.2175 146.094 46.8382 142.501 44.5398 138.23C42.3915 134.208 41.2653 129.72 41.26 125.16C41.26 124.92 41.26 124.7 41.26 124.47C41.3783 119.771 42.6929 115.18 45.0798 111.13C47.4637 107.086 50.8358 103.714 54.8799 101.33C58.9463 98.9412 63.5549 97.6299 68.2698 97.52H68.8999C73.4654 97.5144 77.9605 98.645 81.98 100.81C86.2478 103.101 89.8378 106.473 92.3899 110.59C94.9989 114.78 96.429 119.596 96.5298 124.53C96.5298 124.7 96.5298 124.92 96.5298 125.16C96.5308 129.934 95.294 134.627 92.9399 138.78C90.479 143.139 86.8764 146.745 82.5198 149.21C78.3683 151.558 73.6796 152.792 68.9099 152.79ZM68.7998 106.1H68.5298C65.2666 106.166 62.0751 107.068 59.26 108.72C56.4678 110.364 54.1384 112.69 52.49 115.48C50.8408 118.282 49.9353 121.459 49.8599 124.71C49.8599 124.89 49.8599 125.02 49.8599 125.15C49.8609 128.289 50.6336 131.38 52.1099 134.15C53.6962 137.102 56.0309 139.585 58.8799 141.35C61.7645 143.14 65.0761 144.124 68.47 144.2H68.9099C72.201 144.204 75.4366 143.353 78.2998 141.73C81.3065 140.028 83.7925 137.539 85.49 134.53C87.111 131.67 87.962 128.438 87.96 125.15V124.77C87.886 121.354 86.9021 118.019 85.1099 115.11C83.3429 112.271 80.8642 109.944 77.9199 108.36C75.1119 106.868 71.9794 106.092 68.7998 106.1Z" fill="#A140FF"/>
<path d="M79.9399 108.87C79.1889 108.872 78.4506 108.675 77.7998 108.3C77.3106 108.018 76.8819 107.643 76.5381 107.195C76.1943 106.747 75.9425 106.236 75.7966 105.691C75.6508 105.146 75.6139 104.577 75.6882 104.017C75.7626 103.458 75.9468 102.918 76.23 102.43L79.8999 96.0601C80.1816 95.5709 80.5572 95.1422 81.0049 94.7984C81.4526 94.4546 81.9637 94.2025 82.509 94.0567C83.0544 93.9108 83.6231 93.874 84.1826 93.9484C84.7422 94.0228 85.2815 94.2068 85.7698 94.49C86.2585 94.7709 86.6871 95.1454 87.031 95.592C87.3749 96.0385 87.6274 96.5485 87.7742 97.0927C87.9209 97.6369 87.959 98.2047 87.8862 98.7636C87.8134 99.3225 87.6311 99.8616 87.3499 100.35L83.6699 106.72C83.292 107.375 82.7481 107.918 82.0933 108.295C81.4384 108.673 80.6958 108.871 79.9399 108.87Z" fill="#A140FF"/>
<path d="M53.1399 155.32C52.3878 155.319 51.6495 155.119 51 154.74C50.5108 154.458 50.0821 154.083 49.7383 153.635C49.3945 153.187 49.1424 152.676 48.9966 152.131C48.8507 151.586 48.8138 151.017 48.8882 150.457C48.9626 149.898 49.1467 149.358 49.4299 148.87L52.8999 142.87C53.1816 142.381 53.5572 141.952 54.0049 141.608C54.4526 141.265 54.9637 141.012 55.509 140.867C56.0544 140.721 56.6231 140.684 57.1826 140.758C57.7422 140.833 58.2815 141.017 58.7698 141.3C59.7557 141.871 60.4749 142.81 60.7693 143.91C61.0637 145.011 60.9092 146.183 60.3399 147.17L56.8699 153.17C56.492 153.825 55.9483 154.368 55.2935 154.746C54.6386 155.123 53.8957 155.321 53.1399 155.32Z" fill="#A140FF"/>
<path d="M107.98 100.66C107.285 100.66 106.619 100.384 106.127 99.8926C105.636 99.4013 105.36 98.7349 105.36 98.0401V94.0401C105.36 93.6965 105.428 93.3563 105.56 93.039C105.691 92.7216 105.885 92.4334 106.128 92.1909C106.371 91.9484 106.66 91.7564 106.978 91.6259C107.296 91.4953 107.636 91.4288 107.98 91.4301C108.672 91.4301 109.336 91.705 109.825 92.1945C110.315 92.6839 110.59 93.3478 110.59 94.0401V98.0401C110.591 98.3836 110.525 98.7241 110.394 99.0419C110.263 99.3597 110.072 99.6486 109.829 99.892C109.587 100.135 109.298 100.329 108.981 100.46C108.664 100.592 108.324 100.66 107.98 100.66Z" fill="#A140FF"/>
<path d="M107.98 68.23C107.636 68.2313 107.296 68.1648 106.978 68.0342C106.66 67.9036 106.371 67.7116 106.128 67.4691C105.885 67.2266 105.691 66.9384 105.56 66.6211C105.428 66.3038 105.36 65.9636 105.36 65.62V60.9399C105.36 60.2451 105.636 59.5787 106.127 59.0874C106.619 58.5961 107.285 58.3199 107.98 58.3199C108.324 58.3199 108.664 58.3879 108.981 58.5197C109.298 58.6514 109.587 58.8446 109.829 59.088C110.072 59.3314 110.263 59.6203 110.394 59.9381C110.525 60.2559 110.591 60.5964 110.59 60.9399V65.62C110.59 66.3122 110.315 66.9761 109.825 67.4656C109.336 67.955 108.672 68.23 107.98 68.23Z" fill="#A140FF"/>
<path d="M117.26 98.17C116.801 98.1712 116.349 98.0518 115.951 97.8236C115.553 97.5954 115.221 97.2666 114.99 96.87L113.04 93.49C112.698 92.8825 112.612 92.1643 112.799 91.493C112.987 90.8218 113.433 90.2525 114.04 89.91C114.34 89.7411 114.67 89.6328 115.012 89.5917C115.354 89.5505 115.701 89.5772 116.032 89.67C116.364 89.7629 116.674 89.9202 116.944 90.1329C117.215 90.3457 117.441 90.6098 117.61 90.91L119.61 94.29C119.779 94.5901 119.887 94.9203 119.928 95.2622C119.969 95.604 119.943 95.9507 119.85 96.2822C119.757 96.6138 119.6 96.9239 119.387 97.1946C119.174 97.4653 118.91 97.6914 118.61 97.86C118.197 98.0849 117.73 98.1922 117.26 98.17Z" fill="#A140FF"/>
<path d="M101.14 70.19C100.68 70.1892 100.228 70.0678 99.8301 69.8379C99.4318 69.6081 99.1007 69.2778 98.8699 68.8801L96.48 64.73C96.311 64.43 96.2028 64.0996 96.1616 63.7577C96.1204 63.4159 96.1471 63.0693 96.24 62.7377C96.3329 62.4062 96.4901 62.0962 96.7029 61.8255C96.9156 61.5548 97.1798 61.3287 97.48 61.1601C97.7797 60.9898 98.11 60.8806 98.4521 60.8387C98.7943 60.7968 99.1415 60.8231 99.4734 60.9161C99.8053 61.009 100.115 61.1668 100.386 61.3803C100.657 61.5938 100.882 61.8589 101.05 62.1601L103.44 66.3101C103.609 66.6101 103.717 66.9404 103.758 67.2823C103.799 67.6241 103.773 67.9707 103.68 68.3023C103.587 68.6339 103.43 68.9439 103.217 69.2147C103.004 69.4854 102.74 69.7115 102.44 69.8801C102.04 70.0919 101.592 70.1985 101.14 70.19Z" fill="#A140FF"/>
<path d="M124.05 91.3801C123.59 91.3823 123.138 91.2615 122.74 91.0301L119.36 89.0301C119.06 88.8615 118.796 88.6353 118.583 88.3646C118.37 88.0938 118.213 87.7839 118.12 87.4523C118.027 87.1208 118 86.7742 118.041 86.4323C118.083 86.0905 118.191 85.76 118.36 85.46C118.527 85.1588 118.753 84.8939 119.024 84.6803C119.294 84.4668 119.605 84.309 119.937 84.216C120.268 84.123 120.615 84.0967 120.958 84.1386C121.3 84.1805 121.63 84.2897 121.93 84.46L125.31 86.46C125.611 86.6276 125.876 86.8534 126.09 87.124C126.303 87.3946 126.461 87.7048 126.554 88.0367C126.647 88.3686 126.673 88.7156 126.631 89.0578C126.589 89.3999 126.48 89.7304 126.31 90.0301C126.087 90.4359 125.761 90.7749 125.363 91.0123C124.966 91.2496 124.513 91.3765 124.05 91.3801Z" fill="#A140FF"/>
<path d="M96.0598 75.22C95.5997 75.2222 95.1476 75.1014 94.75 74.87L90.5998 72.48C90.2996 72.3114 90.0355 72.0853 89.8227 71.8146C89.61 71.5439 89.4527 71.2338 89.3599 70.9023C89.267 70.5707 89.2403 70.2241 89.2815 69.8822C89.3227 69.5404 89.4309 69.2101 89.5998 68.9101C89.9423 68.303 90.5116 67.8567 91.1829 67.6692C91.8541 67.4817 92.5725 67.5684 93.1799 67.9101L97.3198 70.3001C97.9268 70.6425 98.3733 71.2118 98.5608 71.8831C98.7483 72.5543 98.6615 73.2726 98.3198 73.88C98.0952 74.2833 97.7679 74.6197 97.3708 74.8551C96.9738 75.0905 96.5214 75.2164 96.0598 75.22Z" fill="#A140FF"/>
<path d="M126.53 82.11H122.53C122.186 82.11 121.846 82.0422 121.529 81.9104C121.212 81.7786 120.923 81.5855 120.681 81.3421C120.438 81.0986 120.246 80.8097 120.116 80.4918C119.985 80.174 119.919 79.8336 119.92 79.49C119.92 78.7978 120.195 78.1339 120.684 77.6444C121.174 77.155 121.838 76.88 122.53 76.88H126.53C126.873 76.8787 127.214 76.9452 127.532 77.0758C127.85 77.2064 128.138 77.3984 128.382 77.6409C128.625 77.8834 128.818 78.1716 128.95 78.4889C129.082 78.8062 129.15 79.1464 129.15 79.49C129.15 80.1849 128.874 80.8513 128.383 81.3427C127.891 81.834 127.225 82.11 126.53 82.11Z" fill="#A140FF"/>
<path d="M94.1399 82.11H89.46C89.1164 82.11 88.7761 82.0422 88.4588 81.9104C88.1414 81.7786 87.8534 81.5855 87.6109 81.342C87.3684 81.0986 87.1762 80.8096 87.0457 80.4918C86.9151 80.174 86.8486 79.8336 86.8499 79.49C86.8499 79.1472 86.9174 78.8079 87.0486 78.4912C87.1798 78.1746 87.3719 77.8868 87.6143 77.6444C87.8566 77.402 88.1445 77.2099 88.4612 77.0787C88.7779 76.9476 89.1172 76.88 89.46 76.88H94.1399C94.8321 76.88 95.4959 77.1549 95.9854 77.6444C96.4748 78.1339 96.75 78.7978 96.75 79.49C96.7513 79.8336 96.6848 80.174 96.5542 80.4918C96.4236 80.8096 96.2315 81.0986 95.989 81.342C95.7465 81.5855 95.4584 81.7786 95.1411 81.9104C94.8238 82.0422 94.4835 82.11 94.1399 82.11Z" fill="#A140FF"/>
<path d="M120.38 75C119.92 74.9992 119.468 74.8778 119.07 74.648C118.672 74.4181 118.341 74.0877 118.11 73.69C117.941 73.3899 117.833 73.0596 117.791 72.7178C117.75 72.3759 117.777 72.0293 117.87 71.6978C117.963 71.3662 118.12 71.0561 118.333 70.7854C118.546 70.5147 118.81 70.2886 119.11 70.12L122.78 68C123.08 67.8311 123.41 67.723 123.752 67.6818C124.094 67.6406 124.441 67.6672 124.772 67.76C125.104 67.8529 125.414 68.0103 125.685 68.223C125.955 68.4358 126.181 68.6998 126.35 69C126.52 69.2997 126.629 69.6302 126.671 69.9723C126.713 70.3144 126.687 70.6615 126.594 70.9934C126.501 71.3253 126.343 71.6355 126.13 71.9061C125.916 72.1767 125.651 72.4023 125.35 72.57L121.68 74.69C121.28 74.9018 120.832 75.0086 120.38 75Z" fill="#A140FF"/>
<path d="M91.9099 91.3801C91.4511 91.3805 91.0004 91.2595 90.6035 91.0295C90.2066 90.7994 89.8775 90.4683 89.6499 90.07C89.4762 89.7736 89.3631 89.4459 89.3169 89.1055C89.2707 88.7651 89.2923 88.4189 89.3806 88.087C89.4689 87.755 89.6222 87.4439 89.8315 87.1716C90.0408 86.8992 90.3018 86.6709 90.5998 86.5001L94.47 84.2701C94.7697 84.0998 95.1 83.9905 95.4421 83.9487C95.7843 83.9068 96.1314 83.9331 96.4634 84.0261C96.7953 84.119 97.1054 84.2768 97.376 84.4903C97.6466 84.7038 97.8722 84.9689 98.0398 85.2701C98.2087 85.5701 98.317 85.9005 98.3581 86.2424C98.3993 86.5842 98.3726 86.9308 98.2798 87.2624C98.1869 87.5939 98.0296 87.9039 97.8169 88.1746C97.6041 88.4453 97.34 88.6714 97.0398 88.84L93.1799 91.08C92.7885 91.2851 92.3517 91.3883 91.9099 91.3801Z" fill="#A140FF"/>
<path d="M108.3 96.64H107.87C104.884 96.575 101.972 95.7043 99.4399 94.12C96.9172 92.5711 94.8476 90.3842 93.4399 87.78C92.1245 85.3188 91.4375 82.5707 91.4399 79.78V79.3499C91.5127 76.4922 92.3146 73.7005 93.7698 71.24C95.2252 68.7609 97.2907 66.6954 99.7698 65.24C102.245 63.787 105.05 62.9887 107.92 62.92H108.3C111.091 62.9113 113.841 63.5987 116.3 64.92C118.904 66.328 121.091 68.3975 122.64 70.92C124.22 73.4718 125.09 76.3993 125.16 79.4V79.79C125.162 82.6921 124.411 85.545 122.98 88.0699C121.48 90.7248 119.285 92.9204 116.63 94.42C114.094 95.8728 111.222 96.638 108.3 96.64ZM108.23 68.2299H108.08C106.091 68.2632 104.144 68.811 102.43 69.8199C100.729 70.8211 99.311 72.239 98.3098 73.9399C97.3077 75.6432 96.7571 77.5743 96.71 79.55V79.8199C96.7089 81.7315 97.1794 83.6138 98.0798 85.3C99.0452 87.0902 100.462 88.5967 102.19 89.67C103.947 90.7596 105.963 91.3603 108.03 91.41H108.3C110.301 91.4113 112.268 90.8945 114.01 89.91C115.84 88.8744 117.354 87.3603 118.39 85.53C119.372 83.787 119.888 81.8205 119.89 79.8199V79.5799C119.845 77.5043 119.248 75.4783 118.16 73.7099C117.083 71.9815 115.573 70.5647 113.78 69.5999C112.072 68.691 110.165 68.2203 108.23 68.2299Z" fill="#A140FF"/>
<path d="M115.01 69.9101C114.553 69.911 114.104 69.7902 113.71 69.5601C113.41 69.3915 113.146 69.1653 112.933 68.8945C112.72 68.6238 112.563 68.3139 112.47 67.9823C112.377 67.6508 112.35 67.3041 112.392 66.9623C112.433 66.6204 112.541 66.29 112.71 65.99L114.95 62.12C115.119 61.8198 115.345 61.5558 115.615 61.343C115.886 61.1303 116.196 60.9729 116.528 60.88C116.859 60.7871 117.206 60.7606 117.548 60.8018C117.889 60.843 118.22 60.9511 118.52 61.12C118.82 61.2886 119.084 61.5147 119.297 61.7854C119.51 62.0561 119.667 62.3662 119.76 62.6978C119.853 63.0293 119.879 63.3759 119.838 63.7178C119.797 64.0596 119.689 64.3899 119.52 64.69L117.28 68.57C117.055 68.9754 116.726 69.3134 116.327 69.549C115.928 69.7846 115.473 69.9093 115.01 69.9101Z" fill="#A140FF"/>
<path d="M98.6999 98.1701C98.2432 98.171 97.7944 98.0501 97.3999 97.82C97.0997 97.6514 96.8356 97.4253 96.6228 97.1546C96.41 96.8838 96.2528 96.5739 96.1599 96.2423C96.067 95.9108 96.0404 95.5642 96.0815 95.2223C96.1227 94.8805 96.2309 94.55 96.3999 94.25L98.51 90.59C98.6786 90.2898 98.9046 90.0258 99.1753 89.813C99.446 89.6002 99.7561 89.4429 100.088 89.35C100.419 89.2571 100.766 89.2306 101.108 89.2717C101.45 89.3129 101.78 89.421 102.08 89.59C102.38 89.7586 102.644 89.9848 102.857 90.2555C103.07 90.5262 103.227 90.8362 103.32 91.1677C103.413 91.4993 103.439 91.8459 103.398 92.1878C103.357 92.5296 103.249 92.86 103.08 93.1601L100.97 96.83C100.742 97.2326 100.413 97.5684 100.014 97.8036C99.6158 98.0388 99.1625 98.1652 98.6999 98.1701Z" fill="#A140FF"/>
</svg>
