<svg width="200" height="240" viewBox="0 0 200 240" fill="none" xmlns="http://www.w3.org/2000/svg">
<g opacity="0.3">
<path opacity="0.3" d="M139.71 49.24C134.241 49.2373 128.997 47.0644 125.129 43.1982C121.261 39.3321 119.085 34.0889 119.08 28.62V0H26.9099C23.3752 -2.4406e-07 19.8751 0.696337 16.6096 2.04932C13.3441 3.4023 10.3771 5.38537 7.87818 7.88525C5.37922 10.3851 3.3973 13.3529 2.04553 16.6189C0.693768 19.8849 -0.00131167 23.3853 1.85821e-06 26.92V189.13C0.0106002 196.26 2.85042 203.094 7.89588 208.132C12.9413 213.17 19.7799 216 26.9099 216H137.51C141.045 216 144.545 215.304 147.81 213.951C151.076 212.598 154.043 210.615 156.542 208.115C159.041 205.615 161.023 202.647 162.375 199.381C163.726 196.115 164.421 192.615 164.42 189.08V49.2L139.71 49.24Z" fill="#005FAD"/>
</g>
<path d="M164.42 49.24H139.71C134.241 49.2373 128.997 47.0644 125.129 43.1982C121.261 39.3321 119.085 34.0889 119.08 28.62V0L164.42 49.24Z" fill="#005FAD"/>
<path d="M123.49 86.34H34.49C33.6333 86.34 32.8118 85.9997 32.2061 85.3939C31.6003 84.7882 31.26 83.9666 31.26 83.11C31.26 82.2533 31.6003 81.4318 32.2061 80.826C32.8118 80.2203 33.6333 79.88 34.49 79.88H123.49C123.914 79.88 124.333 79.9637 124.724 80.1261C125.116 80.2885 125.471 80.5266 125.77 80.8267C126.07 81.1267 126.307 81.4828 126.468 81.8746C126.629 82.2665 126.711 82.6863 126.71 83.11C126.71 83.9649 126.371 84.7849 125.767 85.3904C125.164 85.9958 124.345 86.3373 123.49 86.34Z" fill="#005FAD"/>
<path d="M183.94 170.6H58.8999C50.0302 170.6 42.84 177.79 42.84 186.66V223.94C42.84 232.81 50.0302 240 58.8999 240H183.94C192.81 240 200 232.81 200 223.94V186.66C200 177.79 192.81 170.6 183.94 170.6Z" fill="#005FAD"/>
<path d="M70.71 213.37V220.65H63.1799V213.37H70.71Z" fill="white"/>
<path d="M99.71 213.39C98.4608 215.666 96.5687 217.523 94.27 218.73C91.688 220.06 88.8134 220.72 85.9099 220.65H74.51V190.58H85.87C88.7746 190.504 91.653 191.147 94.25 192.45C96.537 193.633 98.4228 195.467 99.6699 197.72C100.963 200.124 101.614 202.821 101.56 205.55C101.625 208.279 100.988 210.978 99.71 213.39ZM91.88 211.88C92.6965 211.05 93.3294 210.057 93.7377 208.967C94.146 207.876 94.3205 206.712 94.25 205.55C94.3207 204.386 94.1462 203.221 93.7379 202.128C93.3297 201.036 92.6967 200.042 91.88 199.21C90.059 197.619 87.6837 196.81 85.27 196.96H81.83V214.14H85.27C87.6721 214.281 90.0328 213.469 91.84 211.88H91.88Z" fill="white"/>
<path d="M146.56 190.58L139.38 220.65H130.38L125.57 200.53L120.72 220.65H111.72L104.53 190.58H112.44L116.31 212.35L121.58 190.58H129.58L134.85 212.35L138.76 190.58H146.56Z" fill="white"/>
<path d="M173.78 193C176.204 194.818 177.834 197.501 178.33 200.49H170.64C170.137 199.417 169.322 198.521 168.3 197.92C167.155 197.24 165.842 196.893 164.51 196.92C163.475 196.877 162.442 197.063 161.486 197.464C160.531 197.865 159.675 198.471 158.98 199.24C157.517 200.991 156.774 203.232 156.9 205.51C156.9 208.37 157.63 210.567 159.09 212.1C159.911 212.896 160.889 213.512 161.962 213.908C163.035 214.304 164.179 214.472 165.32 214.4C166.952 214.43 168.549 213.928 169.87 212.97C171.217 211.962 172.188 210.533 172.63 208.91H163.45V203.68H178.71V210.87C178.123 212.658 177.2 214.318 175.99 215.76C174.674 217.31 173.041 218.558 171.2 219.42C169.114 220.383 166.837 220.862 164.54 220.82C161.75 220.894 158.99 220.228 156.54 218.89C154.299 217.63 152.474 215.742 151.29 213.46C150.013 210.99 149.377 208.24 149.44 205.46C149.385 202.697 150.021 199.965 151.29 197.51C152.469 195.231 154.287 193.344 156.52 192.08C158.933 190.751 161.656 190.085 164.41 190.15C167.764 190.025 171.064 191.028 173.78 193Z" fill="white"/>
<path d="M100.52 58.17V147.17C100.521 147.595 100.439 148.015 100.277 148.408C100.115 148.8 99.8771 149.157 99.5769 149.457C99.2767 149.757 98.9201 149.995 98.5276 150.157C98.1351 150.319 97.7145 150.401 97.2899 150.4C96.8662 150.4 96.4468 150.316 96.0554 150.154C95.6641 149.991 95.3087 149.753 95.0095 149.453C94.7104 149.153 94.4734 148.797 94.3121 148.405C94.1509 148.013 94.0686 147.594 94.07 147.17V58.17C94.07 57.3151 94.4089 56.495 95.0125 55.8895C95.616 55.2841 96.435 54.9426 97.2899 54.9399C98.1466 54.9399 98.9682 55.2802 99.574 55.886C100.18 56.4917 100.52 57.3134 100.52 58.17Z" fill="#005FAD"/>
<path d="M107.81 72.36H87.2V92.97H107.81V72.36Z" fill="#005FAD"/>
</svg>
