<svg width="201" height="240" viewBox="0 0 201 240" fill="none" xmlns="http://www.w3.org/2000/svg">
<g opacity="0.3">
<path opacity="0.3" d="M139.67 49.24C134.203 49.2347 128.961 47.0606 125.095 43.1947C121.229 39.3288 119.055 34.0871 119.05 28.62V0H26.92C23.3849 0 19.8842 0.696338 16.6182 2.04919C13.3521 3.40205 10.3845 5.38489 7.88477 7.88464C5.38501 10.3844 3.40205 13.3521 2.04919 16.6182C0.696338 19.8842 0 23.3849 0 26.92V189.13C0 192.665 0.696338 196.166 2.04919 199.432C3.40205 202.698 5.38501 205.666 7.88477 208.165C10.3845 210.665 13.3521 212.648 16.6182 214.001C19.8842 215.354 23.3849 216.05 26.92 216.05H137.52C141.055 216.05 144.555 215.354 147.82 214.001C151.086 212.648 154.053 210.665 156.552 208.165C159.051 205.665 161.033 202.697 162.385 199.431C163.736 196.165 164.431 192.665 164.43 189.13V49.25L139.67 49.24Z" fill="#FF9908"/>
</g>
<path d="M164.43 49.24H139.67C134.203 49.2347 128.961 47.0606 125.095 43.1947C121.229 39.3288 119.055 34.0871 119.05 28.62V0L164.43 49.24Z" fill="#FF9908"/>
<path d="M183.95 170.6H58.91C50.0403 170.6 42.8501 177.79 42.8501 186.66V223.94C42.8501 232.81 50.0403 240 58.91 240H183.95C192.82 240 200.01 232.81 200.01 223.94V186.66C200.01 177.79 192.82 170.6 183.95 170.6Z" fill="#FF9908"/>
<path d="M87.29 213.37V220.65H79.76V213.37H87.29Z" fill="white"/>
<path d="M98.3401 196.36V202.65H108.5V208.14H98.3401V214.82H109.78V220.65H91.0601V190.58H109.78V196.36H98.3401Z" fill="white"/>
<path d="M121.18 210.1V220.65H113.9V190.58H125.68C129.26 190.58 131.983 191.463 133.85 193.23C134.796 194.16 135.535 195.28 136.019 196.515C136.504 197.751 136.722 199.075 136.66 200.4C136.691 202.149 136.257 203.875 135.4 205.4C134.535 206.895 133.238 208.094 131.68 208.84C129.809 209.732 127.752 210.164 125.68 210.1H121.18ZM129.26 200.4C129.26 197.733 127.8 196.4 124.88 196.4H121.18V204.23H124.88C127.82 204.257 129.29 202.98 129.29 200.4H129.26Z" fill="white"/>
<path d="M160.62 216.56C159.763 217.946 158.523 219.054 157.05 219.75C155.264 220.593 153.304 221.001 151.33 220.94C148.355 221.06 145.424 220.195 142.99 218.48C141.919 217.671 141.042 216.632 140.424 215.44C139.807 214.247 139.463 212.932 139.42 211.59H147.16C147.225 212.601 147.655 213.553 148.37 214.27C149.092 214.938 150.047 215.298 151.03 215.27C151.838 215.319 152.633 215.046 153.24 214.51C153.507 214.251 153.717 213.94 153.856 213.595C153.996 213.251 154.062 212.881 154.05 212.51C154.06 212.157 154 211.805 153.873 211.476C153.746 211.146 153.555 210.845 153.31 210.59C152.781 210.056 152.153 209.632 151.46 209.34C150.72 209.013 149.7 208.623 148.4 208.17C146.806 207.646 145.249 207.015 143.74 206.28C142.496 205.637 141.428 204.7 140.63 203.55C139.715 202.159 139.264 200.513 139.34 198.85C139.298 197.202 139.774 195.583 140.7 194.22C141.643 192.883 142.947 191.842 144.46 191.22C146.209 190.514 148.084 190.174 149.97 190.22C152.832 190.059 155.661 190.901 157.97 192.6C158.935 193.38 159.728 194.352 160.299 195.453C160.87 196.554 161.208 197.762 161.29 199H153.42C153.332 198.115 152.952 197.285 152.34 196.64C152.026 196.343 151.655 196.112 151.249 195.963C150.844 195.813 150.412 195.748 149.98 195.77C149.232 195.732 148.498 195.974 147.92 196.45C147.647 196.703 147.434 197.014 147.297 197.36C147.16 197.706 147.103 198.079 147.13 198.45C147.121 198.781 147.179 199.111 147.299 199.42C147.419 199.729 147.6 200.011 147.83 200.25C148.333 200.77 148.935 201.185 149.6 201.47C150.31 201.78 151.33 202.18 152.66 202.66C154.281 203.181 155.859 203.826 157.38 204.59C158.634 205.26 159.713 206.216 160.53 207.38C161.461 208.788 161.923 210.454 161.85 212.14C161.865 213.7 161.439 215.232 160.62 216.56Z" fill="white"/>
<path d="M123.03 127.73H120.54C120.527 117.638 116.511 107.964 109.374 100.829C102.237 93.6936 92.5619 89.6806 82.4701 89.67C72.3792 89.6806 62.7046 93.6939 55.5692 100.829C48.4339 107.965 44.4206 117.639 44.41 127.73H41.92C41.9333 116.98 46.2098 106.673 53.8115 99.0714C61.4133 91.4697 71.7196 87.1933 82.4701 87.1801C93.2223 87.1906 103.531 91.4659 111.135 99.0679C118.739 106.67 123.017 116.978 123.03 127.73Z" fill="#FF9908"/>
<path d="M140.1 87.1801H24.8401V89.67H140.1V87.1801Z" fill="#FF9908"/>
<path d="M47.15 123.75H39.1801V131.72H47.15V123.75Z" fill="#FF9908"/>
<path d="M125.77 123.75H117.8V131.72H125.77V123.75Z" fill="#FF9908"/>
<path d="M86.4601 84.3101H78.49V92.28H86.4601V84.3101Z" fill="#FF9908"/>
<path d="M24.7101 92.29C26.9137 92.29 28.7001 90.5037 28.7001 88.3C28.7001 86.0964 26.9137 84.3101 24.7101 84.3101C22.5065 84.3101 20.7201 86.0964 20.7201 88.3C20.7201 90.5037 22.5065 92.29 24.7101 92.29Z" fill="#FF9908"/>
<path d="M139.72 92.29C141.924 92.29 143.71 90.5037 143.71 88.3C143.71 86.0964 141.924 84.3101 139.72 84.3101C137.516 84.3101 135.73 86.0964 135.73 88.3C135.73 90.5037 137.516 92.29 139.72 92.29Z" fill="#FF9908"/>
</svg>
