<svg width="200" height="241" viewBox="0 0 200 241" fill="none" xmlns="http://www.w3.org/2000/svg">
<g opacity="0.3">
<path opacity="0.3" d="M139.71 49.25C134.24 49.2447 128.996 47.0695 125.128 43.2018C121.26 39.3341 119.085 34.0898 119.08 28.62V0H26.9099C19.7729 0 12.9283 2.83511 7.88171 7.88171C2.83511 12.9283 0 19.7731 0 26.91V189.13C0.0105984 196.26 2.85042 203.094 7.89587 208.132C12.9413 213.17 19.7799 216 26.9099 216H137.51C144.647 216 151.491 213.165 156.538 208.118C161.585 203.072 164.42 196.227 164.42 189.09V49.21L139.71 49.25Z" fill="#0072FF"/>
</g>
<path d="M164.42 49.25H139.71C134.24 49.2447 128.996 47.0695 125.128 43.2018C121.26 39.3341 119.085 34.0898 119.08 28.62V0L164.42 49.25Z" fill="#0072FF"/>
<path d="M183.94 170.61H58.8999C50.0302 170.61 42.84 177.8 42.84 186.67V223.95C42.84 232.82 50.0302 240.01 58.8999 240.01H183.94C192.81 240.01 200 232.82 200 223.95V186.67C200 177.8 192.81 170.61 183.94 170.61Z" fill="#0072FF"/>
<path d="M87.1899 213.38V220.65H79.71V213.38H87.1899Z" fill="white"/>
<path d="M98.25 196.36V202.66H108.41V208.14H98.25V214.82H109.71V220.65H90.99V190.58H109.71V196.36H98.25Z" fill="white"/>
<path d="M132.06 220.65L125.72 211.29L120.28 220.65H111.94L121.55 205.17L111.64 190.58H120.28L126.44 199.64L131.76 190.58H140.06L130.57 205.72L140.69 220.65H132.06Z" fill="white"/>
<path d="M150.77 196.36V202.66H160.94V208.14H150.77V214.82H162.21V220.65H143.5V190.58H162.21V196.36H150.77Z" fill="white"/>
<path d="M82.21 147.71C81.0695 147.71 79.9758 147.257 79.1694 146.451C78.363 145.644 77.9099 144.55 77.9099 143.41V136.8C77.9099 136.236 78.0212 135.677 78.2374 135.156C78.4536 134.635 78.7706 134.161 79.17 133.763C79.5695 133.364 80.0435 133.049 80.5652 132.834C81.0868 132.619 81.6457 132.509 82.21 132.51C83.3477 132.51 84.4389 132.962 85.2434 133.766C86.0479 134.571 86.5 135.662 86.5 136.8V143.41C86.5 144.549 86.0483 145.641 85.244 146.447C84.4398 147.253 83.3487 147.707 82.21 147.71Z" fill="#0072FF"/>
<path d="M82.21 94.42C81.0695 94.42 79.9758 93.9669 79.1694 93.1605C78.363 92.3541 77.9099 91.2604 77.9099 90.12V82.4301C77.9099 81.2896 78.363 80.1958 79.1694 79.3894C79.9758 78.583 81.0695 78.13 82.21 78.13C83.3487 78.1327 84.4398 78.5868 85.244 79.3929C86.0483 80.1991 86.5 81.2914 86.5 82.4301V90.12C86.5 91.2587 86.0483 92.3509 85.244 93.157C84.4398 93.9631 83.3487 94.4174 82.21 94.42Z" fill="#0072FF"/>
<path d="M97.4599 143.63C96.7041 143.631 95.9613 143.433 95.3065 143.055C94.6516 142.678 94.1078 142.135 93.7299 141.48L90.5298 135.92C89.961 134.935 89.807 133.764 90.1014 132.665C90.3958 131.566 91.1147 130.629 92.0999 130.06C92.5882 129.777 93.1276 129.593 93.6872 129.518C94.2468 129.444 94.8155 129.481 95.3608 129.627C95.9061 129.772 96.4172 130.025 96.8649 130.368C97.3127 130.712 97.6882 131.141 97.9699 131.63L101.17 137.18C101.739 138.167 101.894 139.339 101.599 140.44C101.305 141.54 100.586 142.479 99.5999 143.05C98.9494 143.427 98.2116 143.627 97.4599 143.63Z" fill="#0072FF"/>
<path d="M70.9099 97.63C70.154 97.6311 69.4113 97.4329 68.7564 97.0554C68.1016 96.678 67.5578 96.1346 67.1799 95.48L63.2399 88.6701C62.6715 87.682 62.5185 86.5087 62.8148 85.408C63.111 84.3072 63.8323 83.3692 64.8199 82.8001C65.8067 82.2308 66.9791 82.0763 68.0797 82.3706C69.1802 82.665 70.119 83.3841 70.6899 84.37L74.6199 91.1899C75.1892 92.1768 75.3436 93.3493 75.0493 94.4498C74.7549 95.5504 74.0358 96.4892 73.0499 97.0601C72.3987 97.4341 71.6608 97.6306 70.9099 97.63Z" fill="#0072FF"/>
<path d="M108.61 132.46C107.859 132.461 107.121 132.264 106.47 131.89L100.91 128.68C99.924 128.109 99.205 127.17 98.9107 126.07C98.6163 124.969 98.7707 123.797 99.34 122.81C99.9092 121.822 100.847 121.101 101.948 120.805C103.049 120.509 104.222 120.661 105.21 121.23L110.77 124.44C111.756 125.011 112.475 125.95 112.769 127.05C113.064 128.151 112.909 129.323 112.34 130.31C111.962 130.965 111.418 131.508 110.763 131.885C110.109 132.263 109.366 132.461 108.61 132.46Z" fill="#0072FF"/>
<path d="M62.61 105.91C61.8581 105.908 61.12 105.708 60.47 105.33L53.6499 101.4C52.664 100.829 51.945 99.8904 51.6507 98.7898C51.3563 97.6893 51.5107 96.5169 52.08 95.5301C52.3617 95.0409 52.7372 94.6121 53.185 94.2684C53.6327 93.9246 54.1438 93.6725 54.6891 93.5267C55.2344 93.3808 55.8031 93.344 56.3627 93.4184C56.9223 93.4927 57.4617 93.6768 57.95 93.96L64.7701 97.8901C65.754 98.4628 66.4713 99.4015 66.7654 100.501C67.0596 101.601 66.9066 102.773 66.34 103.76C65.9621 104.415 65.4183 104.958 64.7635 105.335C64.1086 105.713 63.3659 105.911 62.61 105.91Z" fill="#0072FF"/>
<path d="M112.71 117.22H106.09C104.95 117.22 103.856 116.767 103.049 115.961C102.243 115.154 101.79 114.06 101.79 112.92C101.793 111.781 102.247 110.69 103.053 109.886C103.859 109.082 104.951 108.63 106.09 108.63H112.71C113.849 108.63 114.941 109.082 115.747 109.886C116.553 110.69 117.007 111.781 117.01 112.92C117.01 114.06 116.557 115.154 115.75 115.961C114.944 116.767 113.85 117.22 112.71 117.22Z" fill="#0072FF"/>
<path d="M59.39 117.22H51.71C50.5695 117.22 49.4758 116.767 48.6694 115.961C47.863 115.154 47.4099 114.06 47.4099 112.92C47.4126 111.781 47.8669 110.69 48.673 109.886C49.4791 109.082 50.5713 108.63 51.71 108.63H59.38C59.9442 108.629 60.5031 108.739 61.0248 108.954C61.5464 109.169 62.0205 109.484 62.4199 109.883C62.8193 110.281 63.1362 110.755 63.3524 111.276C63.5686 111.797 63.6799 112.356 63.6799 112.92C63.6812 113.484 63.5713 114.043 63.3563 114.565C63.1413 115.086 62.8255 115.561 62.427 115.96C62.0285 116.359 61.5551 116.676 61.0339 116.892C60.5128 117.109 59.9542 117.22 59.39 117.22Z" fill="#0072FF"/>
<path d="M102.59 105.45C101.835 105.451 101.093 105.254 100.439 104.878C99.7843 104.503 99.2399 103.962 98.8599 103.31C98.2915 102.322 98.1385 101.149 98.4348 100.048C98.731 98.9473 99.4523 98.0092 100.44 97.44L106.44 93.96C107.427 93.3907 108.599 93.2363 109.7 93.5307C110.8 93.825 111.739 94.5441 112.31 95.5301C112.879 96.5169 113.034 97.6893 112.739 98.7898C112.445 99.8904 111.726 100.829 110.74 101.4L104.74 104.88C104.086 105.257 103.344 105.453 102.59 105.45Z" fill="#0072FF"/>
<path d="M55.8 132.46C55.0454 132.461 54.304 132.263 53.6507 131.886C52.9974 131.508 52.4555 130.965 52.08 130.31C51.5107 129.323 51.3563 128.151 51.6507 127.05C51.945 125.95 52.664 125.011 53.6499 124.44L60.01 120.77C60.9975 120.203 62.1689 120.05 63.2687 120.345C64.3685 120.639 65.3073 121.356 65.88 122.34C66.4485 123.328 66.6014 124.501 66.3051 125.602C66.0088 126.703 65.2876 127.641 64.3 128.21L57.95 131.88C57.2984 132.263 56.5557 132.463 55.8 132.46Z" fill="#0072FF"/>
<path d="M82.71 141.11H82.02C77.1051 140.995 72.3114 139.562 68.14 136.96C64.0177 134.404 60.6384 130.811 58.34 126.54C56.1917 122.518 55.0653 118.03 55.0599 113.47C55.0599 113.24 55.0599 113.01 55.0599 112.78C55.1782 108.081 56.493 103.489 58.88 99.44C61.2638 95.3959 64.6359 92.0239 68.6799 89.64C72.7463 87.2513 77.3551 85.9398 82.0699 85.83H82.7C87.2653 85.8251 91.7601 86.9558 95.7799 89.12C100.048 91.4105 103.638 94.7834 106.19 98.9C108.795 103.091 110.225 107.906 110.33 112.84C110.33 113.01 110.33 113.24 110.33 113.47C110.331 118.244 109.094 122.937 106.74 127.09C104.279 131.449 100.677 135.055 96.3199 137.52C92.1693 139.872 87.4805 141.108 82.71 141.11ZM82.6 94.41H82.33C79.063 94.481 75.8684 95.3864 73.0499 97.0401C70.2631 98.6836 67.9375 101.006 66.2899 103.79C64.6586 106.59 63.7705 109.76 63.71 113C63.71 113.18 63.71 113.31 63.71 113.44C63.7079 116.581 64.4844 119.673 65.97 122.44C67.5523 125.392 69.8838 127.875 72.73 129.64C75.6175 131.431 78.9327 132.416 82.33 132.49H82.77C86.0611 132.494 89.2967 131.643 92.1599 130.02C95.1666 128.318 97.6525 125.829 99.35 122.82C100.971 119.96 101.822 116.728 101.82 113.44V113.06C101.746 109.643 100.758 106.307 98.96 103.4C97.2006 100.561 94.724 98.2367 91.7799 96.66C88.9658 95.1573 85.8201 94.3837 82.63 94.41H82.6Z" fill="#0072FF"/>
<path d="M93.7701 97.1801C93.0188 97.183 92.2803 96.9863 91.63 96.61C91.1409 96.3283 90.7121 95.9529 90.3683 95.5052C90.0245 95.0574 89.7725 94.5462 89.6266 94.0009C89.4808 93.4556 89.444 92.8869 89.5184 92.3273C89.5927 91.7677 89.7768 91.2283 90.06 90.74L93.73 84.37C94.0117 83.8809 94.3872 83.4521 94.8349 83.1083C95.2826 82.7645 95.7938 82.5125 96.3392 82.3666C96.8845 82.2208 97.4532 82.184 98.0127 82.2583C98.5723 82.3327 99.1117 82.5169 99.6 82.8001C100.089 83.0818 100.518 83.4572 100.862 83.9049C101.206 84.3527 101.457 84.8639 101.603 85.4092C101.749 85.9545 101.786 86.5232 101.712 87.0828C101.637 87.6424 101.453 88.1818 101.17 88.6701L97.5 95.0301C97.1221 95.6846 96.5783 96.2281 95.9235 96.6055C95.2687 96.983 94.5259 97.1812 93.7701 97.1801Z" fill="#0072FF"/>
<path d="M66.9599 143.63C66.2078 143.629 65.4693 143.429 64.8199 143.05C63.8323 142.481 63.111 141.543 62.8148 140.442C62.5185 139.341 62.6715 138.168 63.2399 137.18L66.7199 131.18C67.2908 130.194 68.2296 129.475 69.3301 129.181C70.4307 128.886 71.6031 129.041 72.5899 129.61C73.5758 130.181 74.2949 131.12 74.5893 132.22C74.8837 133.321 74.7292 134.493 74.1599 135.48L70.6899 141.48C70.312 142.135 69.7682 142.678 69.1134 143.055C68.4585 143.433 67.7157 143.631 66.9599 143.63Z" fill="#0072FF"/>
</svg>
