<svg width="201" height="240" viewBox="0 0 201 240" fill="none" xmlns="http://www.w3.org/2000/svg">
<g opacity="0.3">
<path opacity="0.3" d="M139.67 49.24C134.203 49.2347 128.961 47.0606 125.095 43.1947C121.229 39.3288 119.055 34.0871 119.05 28.62V1.85821e-06H26.92C23.3853 -0.00131167 19.8849 0.693768 16.6189 2.04553C13.3529 3.3973 10.3851 5.37928 7.88525 7.87824C5.38537 10.3772 3.4023 13.3442 2.04932 16.6097C0.696337 19.8752 -2.4406e-07 23.3753 0 26.91V189.13C0.0106004 196.262 2.8518 203.098 7.89941 208.136C12.947 213.174 19.7883 216.003 26.92 216H137.52C144.657 216 151.502 213.165 156.548 208.118C161.595 203.072 164.43 196.227 164.43 189.09V49.24H139.67Z" fill="#005FAD"/>
</g>
<path d="M164.43 49.24H139.67C134.203 49.2347 128.961 47.0606 125.095 43.1947C121.229 39.3288 119.055 34.0871 119.05 28.62V0L164.43 49.24Z" fill="#005FAD"/>
<path d="M183.95 170.6H58.91C50.0403 170.6 42.85 177.79 42.85 186.66V223.94C42.85 232.81 50.0403 240 58.91 240H183.95C192.82 240 200.01 232.81 200.01 223.94V186.66C200.01 177.79 192.82 170.6 183.95 170.6Z" fill="#005FAD"/>
<path d="M83.34 213.37V220.64H75.86V213.37H83.34Z" fill="white"/>
<path d="M120.94 190.78V220.64H113.66V202L107.2 220.67H100.86L94.36 201.96V220.67H87.08V190.81H95.97L104.1 211.61L112.1 190.81L120.94 190.78Z" fill="white"/>
<path d="M133.23 190.57V220.64H125.96V190.57H133.23Z" fill="white"/>
<path d="M163.4 213.39C162.148 215.664 160.257 217.52 157.96 218.73C155.376 220.053 152.502 220.71 149.6 220.64H138.25V190.57H149.6C152.505 190.492 155.384 191.134 157.98 192.44C160.27 193.624 162.157 195.462 163.4 197.72C164.702 200.117 165.357 202.813 165.3 205.54C165.354 208.277 164.7 210.981 163.4 213.39ZM155.58 211.88C156.393 211.046 157.023 210.051 157.429 208.959C157.835 207.867 158.009 206.703 157.94 205.54C158.009 204.377 157.835 203.213 157.428 202.121C157.022 201.03 156.392 200.035 155.58 199.2C153.754 197.61 151.376 196.802 148.96 196.95H145.52V214.13H148.96C151.376 214.278 153.754 213.47 155.58 211.88Z" fill="white"/>
<path d="M120.23 131.92H109.28V87.6601C109.28 86.1775 108.691 84.7557 107.643 83.7074C106.594 82.659 105.173 82.0701 103.69 82.0701H75.6899C74.2065 82.0701 72.7837 82.6587 71.7338 83.7068C70.6838 84.7548 70.0926 86.1766 70.09 87.6601V131.92H59.09V83.9201C59.0926 80.5191 60.4455 77.2583 62.8513 74.8544C65.2571 72.4504 68.519 71.1001 71.92 71.1001H107.33C110.73 71.1001 113.991 72.4508 116.395 74.855C118.799 77.2592 120.15 80.52 120.15 83.9201L120.23 131.92Z" fill="#005FAD"/>
<path d="M107.25 144.9C114.419 144.9 120.23 139.089 120.23 131.92C120.23 124.751 114.419 118.94 107.25 118.94C100.081 118.94 94.2699 124.751 94.2699 131.92C94.2699 139.089 100.081 144.9 107.25 144.9Z" fill="#005FAD"/>
<path d="M57.1801 144.9C64.3487 144.9 70.16 139.089 70.16 131.92C70.16 124.751 64.3487 118.94 57.1801 118.94C50.0114 118.94 44.2001 124.751 44.2001 131.92C44.2001 139.089 50.0114 144.9 57.1801 144.9Z" fill="#005FAD"/>
</svg>
