<svg width="200" height="240" viewBox="0 0 200 240" fill="none" xmlns="http://www.w3.org/2000/svg">
<g opacity="0.3">
<path opacity="0.3" d="M139.67 49.24C134.203 49.2347 128.961 47.0606 125.095 43.1947C121.229 39.3288 119.055 34.0871 119.05 28.62V0H26.91C19.773 0 12.9284 2.83514 7.88177 7.88174C2.83517 12.9283 0 19.773 0 26.91V189.13C0.0105984 196.26 2.85042 203.094 7.89587 208.132C12.9413 213.17 19.7799 216 26.91 216H137.52C144.652 216 151.492 213.169 156.538 208.129C161.583 203.089 164.422 196.252 164.43 189.12V49.24H139.67Z" fill="#FF3E4C"/>
</g>
<path d="M164.43 49.24H139.67C134.203 49.2347 128.961 47.0606 125.095 43.1947C121.229 39.3288 119.055 34.0871 119.05 28.62V0L164.43 49.24Z" fill="#FF3E4C"/>
<path d="M183.94 170.6H58.9C50.0303 170.6 42.84 177.79 42.84 186.66V223.94C42.84 232.81 50.0303 240 58.9 240H183.94C192.81 240 200 232.81 200 223.94V186.66C200 177.79 192.81 170.6 183.94 170.6Z" fill="#FF3E4C"/>
<path d="M78.66 213.37V220.64H71.13V213.37H78.66Z" fill="white"/>
<path d="M116.26 190.78V220.64H108.99V202L102.52 220.67H96.23L89.72 201.96V220.67H82.43V190.81H91.32L99.44 211.61L107.44 190.81L116.26 190.78Z" fill="white"/>
<path d="M128.55 210.09V220.64H121.28V190.57H133.06C136.63 190.57 139.36 191.46 141.23 193.23C142.175 194.158 142.914 195.276 143.396 196.51C143.879 197.744 144.095 199.067 144.03 200.39C144.066 202.138 143.634 203.864 142.78 205.39C141.907 206.881 140.613 208.082 139.06 208.84C137.185 209.721 135.13 210.149 133.06 210.09H128.55ZM136.63 200.39C136.63 197.763 135.17 196.447 132.25 196.44H128.55V204.27H132.25C135.17 204.27 136.63 202.977 136.63 200.39Z" fill="white"/>
<path d="M163.34 190.34C164.753 190.982 165.946 192.025 166.77 193.34C167.556 194.628 167.961 196.112 167.94 197.62C168.019 199.324 167.483 200.999 166.43 202.34C165.47 203.502 164.138 204.297 162.66 204.59V204.81C166.553 206.05 168.497 208.473 168.49 212.08C168.518 213.696 168.107 215.29 167.3 216.69C166.481 218.061 165.273 219.157 163.83 219.84C162.121 220.632 160.253 221.019 158.37 220.97C154.91 220.97 152.16 220.12 150.14 218.42C148.12 216.72 147.01 214.12 146.84 210.63H153.94C153.931 211.777 154.324 212.892 155.05 213.78C155.434 214.182 155.902 214.493 156.421 214.692C156.94 214.891 157.496 214.972 158.05 214.93C158.506 214.955 158.962 214.884 159.389 214.722C159.816 214.56 160.205 214.311 160.53 213.99C160.838 213.669 161.078 213.29 161.236 212.874C161.394 212.458 161.467 212.015 161.45 211.57C161.45 209.097 159.663 207.863 156.09 207.87H154.73V201.96H156.05C159.25 202.007 160.85 200.857 160.85 198.51C160.88 198.081 160.821 197.65 160.678 197.244C160.536 196.839 160.312 196.466 160.02 196.15C159.725 195.867 159.374 195.647 158.991 195.505C158.607 195.362 158.199 195.299 157.79 195.32C157.337 195.293 156.884 195.369 156.465 195.542C156.046 195.715 155.672 195.981 155.37 196.32C154.741 197.116 154.39 198.096 154.37 199.11H147.26C147.243 197.751 147.5 196.402 148.015 195.145C148.531 193.887 149.294 192.746 150.26 191.79C152.1 190.09 154.68 189.24 158 189.24C159.84 189.201 161.665 189.577 163.34 190.34Z" fill="white"/>
<path d="M120.23 131.92H109.28V87.6601C109.28 86.1775 108.691 84.7557 107.643 83.7074C106.594 82.659 105.173 82.0701 103.69 82.0701H75.69C74.9559 82.0701 74.229 82.2147 73.5508 82.4956C72.8726 82.7765 72.2563 83.1883 71.7372 83.7074C71.2182 84.2264 70.8064 84.8427 70.5255 85.5209C70.2446 86.1991 70.1 86.926 70.1 87.6601V131.92H59.1V83.9201C59.1 82.2357 59.432 80.5678 60.0768 79.0118C60.7217 77.4557 61.6669 76.042 62.8584 74.8514C64.0499 73.6609 65.4644 72.7168 67.0209 72.0731C68.5775 71.4294 70.2456 71.0988 71.93 71.1001H107.43C110.83 71.1001 114.091 72.4508 116.495 74.855C118.899 77.2592 120.25 80.52 120.25 83.9201L120.23 131.92Z" fill="#FF3E4C"/>
<path d="M107.25 144.9C114.419 144.9 120.23 139.089 120.23 131.92C120.23 124.751 114.419 118.94 107.25 118.94C100.081 118.94 94.27 124.751 94.27 131.92C94.27 139.089 100.081 144.9 107.25 144.9Z" fill="#FF3E4C"/>
<path d="M57.18 144.9C64.3487 144.9 70.16 139.089 70.16 131.92C70.16 124.751 64.3487 118.94 57.18 118.94C50.0114 118.94 44.2 124.751 44.2 131.92C44.2 139.089 50.0114 144.9 57.18 144.9Z" fill="#FF3E4C"/>
</svg>
