<svg width="200" height="240" viewBox="0 0 200 240" fill="none" xmlns="http://www.w3.org/2000/svg">
<g opacity="0.3">
<path opacity="0.3" d="M139.67 49.24C134.202 49.2347 128.959 47.0609 125.092 43.1953C121.224 39.3297 119.048 34.0881 119.04 28.62V0H26.9099C19.7729 0 12.9282 2.83517 7.88159 7.88177C2.83499 12.9284 0 19.773 0 26.91V189.13C0.0105984 196.26 2.8503 203.094 7.89575 208.132C12.9412 213.17 19.7799 216 26.9099 216H137.51C144.647 216 151.491 213.165 156.538 208.118C161.585 203.072 164.42 196.227 164.42 189.09V49.24H139.67Z" fill="#00C650"/>
</g>
<path d="M164.42 49.24H139.67C134.202 49.2347 128.959 47.0609 125.092 43.1953C121.224 39.3297 119.048 34.0881 119.04 28.62V0L164.42 49.24Z" fill="#00C650"/>
<path d="M183.94 170.6H58.8999C50.0302 170.6 42.8398 177.79 42.8398 186.66V223.94C42.8398 232.81 50.0302 240 58.8999 240H183.94C192.81 240 200 232.81 200 223.94V186.66C200 177.79 192.81 170.6 183.94 170.6Z" fill="#00C650"/>
<path d="M65.0598 213.37V220.64H57.5298V213.37H65.0598Z" fill="white"/>
<path d="M102.66 190.79V220.64H95.3799V202L88.9199 220.67H82.6199L76.1199 201.96V220.67H68.8398V190.82H77.73L85.8599 211.61L93.8599 190.82L102.66 190.79Z" fill="white"/>
<path d="M114.95 210.1V220.64H107.68V190.57H119.46C123.027 190.57 125.747 191.457 127.62 193.23C128.569 194.158 129.311 195.277 129.796 196.513C130.28 197.749 130.496 199.074 130.43 200.4C130.457 202.147 130.026 203.871 129.18 205.4C128.306 206.889 127.012 208.085 125.46 208.84C123.588 209.729 121.531 210.161 119.46 210.1H114.95ZM123.03 200.4C123.03 197.733 121.57 196.4 118.65 196.4H114.95V204.23H118.65C121.57 204.257 123.03 202.98 123.03 200.4Z" fill="white"/>
<path d="M141.28 196.36V202.65H151.44V208.14H141.28V214.82H152.72V220.64H134V190.57H152.72V196.36H141.28Z" fill="white"/>
<path d="M180.24 193C182.663 194.819 184.293 197.501 184.79 200.49H177.14C176.635 199.415 175.82 198.517 174.8 197.91C173.655 197.229 172.342 196.883 171.01 196.91C169.975 196.869 168.944 197.054 167.989 197.453C167.034 197.852 166.178 198.455 165.48 199.22C164.023 200.978 163.281 203.22 163.4 205.5C163.4 208.36 164.13 210.557 165.59 212.09C166.411 212.886 167.389 213.502 168.462 213.898C169.535 214.294 170.678 214.462 171.82 214.39C173.451 214.42 175.048 213.918 176.37 212.96C177.701 211.978 178.674 210.587 179.14 209H169.95V203.77H185.14V211C184.552 212.788 183.629 214.448 182.42 215.89C181.104 217.439 179.47 218.688 177.63 219.55C175.547 220.512 173.274 220.991 170.98 220.95C168.189 221.02 165.429 220.351 162.98 219.01C160.739 217.754 158.914 215.87 157.73 213.59C156.467 211.133 155.831 208.402 155.88 205.64C155.824 202.861 156.46 200.112 157.73 197.64C158.915 195.368 160.731 193.486 162.96 192.22C165.374 190.893 168.096 190.227 170.85 190.29C174.194 190.124 177.498 191.078 180.24 193Z" fill="white"/>
<path d="M119.44 131.91V84.2C119.437 83.9684 119.414 83.7374 119.37 83.51C119.375 83.4435 119.375 83.3765 119.37 83.31C119.37 83.15 119.28 83 119.23 82.85L119.14 82.65C119.075 82.5037 118.998 82.3632 118.91 82.23L118.82 82.07C118.691 81.8912 118.551 81.7209 118.4 81.56L118.33 81.5C118.194 81.3717 118.05 81.2516 117.9 81.14L117.72 81.03C117.59 80.95 117.45 80.88 117.31 80.81L117.11 80.72C116.95 80.6595 116.786 80.6095 116.62 80.57H116.46C116.237 80.5215 116.008 80.498 115.78 80.5H48.4198C47.4941 80.5847 46.6333 81.0121 46.0063 81.6984C45.3792 82.3846 45.0308 83.2804 45.0297 84.21C45.0297 84.27 45.0297 84.32 45.0297 84.38V132.06C45.0099 132.673 45.2044 133.274 45.5797 133.76C45.9102 134.314 46.3787 134.773 46.9396 135.092C47.5005 135.411 48.1344 135.579 48.7797 135.58H115.78C116.746 135.56 117.666 135.166 118.349 134.482C119.031 133.798 119.422 132.876 119.44 131.91ZM48.9499 89.48V82.24H54.8398V89.48H48.9499ZM58.8898 89.48V82.24H64.7797V89.48H58.8898ZM68.8297 89.48V82.24H74.7199V89.48H68.8297ZM78.7697 89.48V82.24H84.6598V89.48H78.7697ZM88.7099 89.48V82.24H94.5998V89.48H88.7099ZM98.6498 89.48V82.24H104.54V89.48H98.6498ZM108.59 89.48V82.24H114.48V89.48H108.59ZM47.5898 124.59V91.44H116.81V124.59H47.5898ZM48.9399 133.78V126.54H54.8297V133.78H48.9399ZM58.8798 133.78V126.54H64.7697V133.78H58.8798ZM68.8197 133.78V126.54H74.7099V133.78H68.8197ZM78.7599 133.78V126.54H84.6498V133.78H78.7599ZM88.6999 133.78V126.54H94.5898V133.78H88.6999ZM98.6398 133.78V126.54H104.53V133.78H98.6398ZM108.58 133.78V126.54H114.47V133.78H108.58Z" fill="#00C650"/>
<path d="M90.22 105.56L80.6499 100.03C80.1546 99.744 79.5927 99.5934 79.0208 99.5933C78.4488 99.5931 77.8868 99.7434 77.3914 100.029C76.8959 100.315 76.4841 100.726 76.1978 101.221C75.9114 101.716 75.7606 102.278 75.76 102.85V113.91C75.7606 114.482 75.9114 115.044 76.1978 115.539C76.4841 116.034 76.8959 116.445 77.3914 116.731C77.8868 117.017 78.4488 117.167 79.0208 117.167C79.5927 117.167 80.1546 117.016 80.6499 116.73L90.22 111.2C90.714 110.913 91.1241 110.502 91.4092 110.007C91.6943 109.512 91.8442 108.951 91.8442 108.38C91.8442 107.809 91.6943 107.248 91.4092 106.753C91.1241 106.258 90.714 105.847 90.22 105.56Z" fill="#00C650"/>
</svg>
