<svg width="200" height="241" viewBox="0 0 200 241" fill="none" xmlns="http://www.w3.org/2000/svg">
<g opacity="0.3">
<path opacity="0.3" d="M139.67 49.25C134.201 49.2447 128.958 47.0692 125.092 43.2012C121.226 39.3332 119.053 34.0889 119.05 28.62V0H26.9102C19.7732 0 12.9284 2.83511 7.88184 7.88171C2.83523 12.9283 0 19.7731 0 26.91V189.13C0 196.267 2.83523 203.112 7.88184 208.158C12.9284 213.205 19.7732 216.04 26.9102 216.04H137.51C144.647 216.04 151.492 213.205 156.538 208.158C161.585 203.112 164.42 196.267 164.42 189.13V49.25H139.67Z" fill="#005FAD"/>
</g>
<path d="M164.42 49.25H139.67C134.201 49.2447 128.958 47.0692 125.092 43.2012C121.226 39.3332 119.053 34.0889 119.05 28.62V0L164.42 49.25Z" fill="#005FAD"/>
<path d="M183.94 170.61H58.9001C50.0305 170.61 42.8401 177.8 42.8401 186.67V223.95C42.8401 232.82 50.0305 240.01 58.9001 240.01H183.94C192.81 240.01 200 232.82 200 223.95V186.67C200 177.8 192.81 170.61 183.94 170.61Z" fill="#005FAD"/>
<path d="M83.6902 213.38V220.65H76.1602V213.38H83.6902Z" fill="white"/>
<path d="M94.75 210.1V220.65H87.47V190.58H99.26C102.83 190.58 105.55 191.46 107.42 193.24C108.367 194.168 109.107 195.285 109.591 196.519C110.075 197.753 110.293 199.076 110.23 200.4C110.257 202.147 109.826 203.871 108.98 205.4C108.106 206.894 106.808 208.095 105.25 208.85C103.376 209.733 101.321 210.161 99.25 210.1H94.75ZM102.83 200.4C102.83 197.767 101.37 196.433 98.45 196.4H94.75V204.22H98.45C101.37 204.253 102.83 202.98 102.83 200.4Z" fill="white"/>
<path d="M134.2 216.57C133.333 217.951 132.092 219.058 130.62 219.76C128.833 220.598 126.874 221.006 124.9 220.95C121.927 221.068 118.998 220.199 116.57 218.48C115.493 217.676 114.611 216.638 113.991 215.445C113.371 214.252 113.029 212.934 112.99 211.59H120.74C120.788 212.604 121.221 213.563 121.95 214.27C122.67 214.941 123.626 215.301 124.61 215.27C125.419 215.312 126.212 215.036 126.82 214.5C127.087 214.241 127.297 213.93 127.436 213.585C127.576 213.241 127.642 212.871 127.63 212.5C127.641 212.147 127.58 211.796 127.451 211.468C127.322 211.14 127.128 210.841 126.88 210.59C126.349 210.056 125.721 209.629 125.03 209.33C124.29 209.01 123.27 208.62 121.97 208.16C120.376 207.635 118.819 207.003 117.31 206.27C116.072 205.628 115.008 204.694 114.21 203.55C113.289 202.161 112.834 200.515 112.91 198.85C112.868 197.199 113.343 195.577 114.27 194.21C115.218 192.878 116.521 191.839 118.03 191.21C119.779 190.505 121.654 190.165 123.54 190.21C126.402 190.05 129.231 190.891 131.54 192.59C132.521 193.39 133.325 194.385 133.9 195.513C134.475 196.641 134.809 197.876 134.88 199.14H127.01C126.92 198.254 126.536 197.423 125.92 196.78C125.606 196.483 125.235 196.252 124.829 196.102C124.424 195.953 123.992 195.887 123.56 195.91C122.813 195.872 122.078 196.114 121.5 196.59C121.227 196.843 121.014 197.154 120.877 197.5C120.74 197.846 120.683 198.219 120.71 198.59C120.699 199.261 120.95 199.911 121.41 200.4C121.914 200.917 122.516 201.328 123.18 201.61C123.89 201.92 124.91 202.32 126.24 202.8C127.861 203.324 129.439 203.972 130.96 204.74C132.216 205.403 133.296 206.356 134.11 207.52C135.041 208.928 135.503 210.594 135.43 212.28C135.419 213.795 134.993 215.279 134.2 216.57Z" fill="white"/>
<path d="M164.57 213.4C163.317 215.674 161.421 217.528 159.12 218.73C156.542 220.061 153.67 220.721 150.77 220.65H139.41V190.58H150.77C153.672 190.503 156.547 191.146 159.14 192.45C161.43 193.633 163.319 195.467 164.57 197.72C165.863 200.124 166.514 202.821 166.46 205.55C166.511 208.285 165.861 210.988 164.57 213.4ZM156.74 211.89C157.554 211.057 158.185 210.062 158.592 208.97C158.998 207.878 159.171 206.713 159.1 205.55C159.171 204.387 158.998 203.222 158.592 202.13C158.185 201.038 157.554 200.043 156.74 199.21C154.918 197.62 152.544 196.811 150.13 196.96H146.68V214.14H150.13C152.557 214.3 154.948 213.491 156.78 211.89H156.74Z" fill="white"/>
<path d="M50.05 130.81C50.05 130.81 43.54 116.98 51.97 103.48C51.97 103.48 54.46 110.74 56.51 110.27C56.51 110.27 53.9001 99.8601 55.8201 96.7801C55.8201 96.7801 64.1401 84.8501 73.3201 78.4001C73.3201 78.4001 73.62 85.49 75.78 86.07C75.78 86.07 75.44 81.69 78.49 75.07C78.49 75.07 93.29 63.67 117.99 64.71C117.99 64.71 108.24 79.81 102.76 89.99C99.8627 95.4869 96.6783 100.828 93.22 105.99C93.22 105.99 85.96 110.23 81.22 109.83C81.22 109.83 85.2201 112.97 89.5601 111.42C89.5601 111.42 78.5101 131.42 57.0701 133.94C57.0701 133.94 53.07 142.17 52.27 149.38C52.27 149.38 48.2701 151.8 46.3901 151.38C46.3901 151.38 56.7601 111.55 92.1101 82.69C92.1601 82.69 71.78 88.0801 50.05 130.81Z" fill="#005FAD"/>
</svg>
