<svg width="200" height="240" viewBox="0 0 200 240" fill="none" xmlns="http://www.w3.org/2000/svg">
<g opacity="0.3">
<path opacity="0.3" d="M139.71 49.25C134.242 49.2447 128.999 47.0709 125.132 43.2053C121.264 39.3398 119.088 34.0979 119.08 28.6299V0H26.9099C19.7729 0 12.9283 2.83523 7.88171 7.88184C2.83511 12.9284 0 19.7729 0 26.9099V189.13C0.0105984 196.26 2.85042 203.094 7.89587 208.132C12.9413 213.17 19.7799 216 26.9099 216H137.51C144.647 216 151.491 213.165 156.538 208.118C161.585 203.072 164.42 196.227 164.42 189.09V49.21L139.71 49.25Z" fill="#FF3E4C"/>
</g>
<path d="M164.42 49.25H139.71C134.242 49.2447 128.999 47.0709 125.132 43.2053C121.264 39.3398 119.088 34.0979 119.08 28.6299V0L164.42 49.25Z" fill="#FF3E4C"/>
<path d="M183.94 170.61H58.8999C50.0302 170.61 42.84 177.8 42.84 186.67V223.95C42.84 232.82 50.0302 240.01 58.8999 240.01H183.94C192.81 240.01 200 232.82 200 223.95V186.67C200 177.8 192.81 170.61 183.94 170.61Z" fill="#FF3E4C"/>
<path d="M89.0399 210.1V220.65H81.76V190.58H93.5499C97.1233 190.58 99.8433 191.467 101.71 193.24C102.657 194.169 103.398 195.289 103.882 196.524C104.366 197.76 104.584 199.084 104.52 200.41C104.553 202.159 104.118 203.885 103.26 205.41C102.392 206.906 101.097 208.107 99.5399 208.86C97.6681 209.749 95.611 210.178 93.5399 210.11L89.0399 210.1ZM97.12 200.41C97.12 197.743 95.66 196.41 92.74 196.41H89.0399V204.24H92.74C95.66 204.267 97.12 202.99 97.12 200.41Z" fill="white"/>
<path d="M115.15 190.58V207.93C115.04 209.561 115.515 211.178 116.49 212.49C116.979 213.027 117.582 213.447 118.256 213.719C118.929 213.991 119.655 214.108 120.38 214.06C121.106 214.108 121.834 213.992 122.509 213.72C123.185 213.449 123.79 213.028 124.28 212.49C125.255 211.178 125.73 209.561 125.62 207.93V190.58H132.89V207.93C132.975 210.424 132.402 212.897 131.23 215.1C130.187 216.976 128.61 218.5 126.7 219.48C124.686 220.484 122.46 220.989 120.21 220.95C117.997 220.996 115.806 220.498 113.83 219.5C111.969 218.522 110.457 216.992 109.5 215.12C108.384 212.892 107.841 210.421 107.92 207.93V190.58H115.15Z" fill="white"/>
<path d="M160.09 207.81C161.142 209.122 161.704 210.759 161.68 212.44C161.733 213.569 161.529 214.696 161.084 215.735C160.639 216.774 159.964 217.699 159.11 218.44C157.39 219.887 154.93 220.61 151.73 220.61H137.73V190.54H151.38C154.44 190.54 156.807 191.207 158.48 192.54C159.32 193.224 159.985 194.097 160.421 195.088C160.858 196.079 161.053 197.159 160.99 198.24C161.048 199.871 160.539 201.472 159.55 202.77C158.595 203.969 157.257 204.802 155.76 205.13C157.47 205.496 159 206.443 160.09 207.81ZM145.01 202.87H149.77C152.3 202.87 153.56 201.8 153.56 199.64C153.56 197.48 152.27 196.41 149.69 196.41H145.01V202.87ZM154.24 211.42C154.262 210.946 154.178 210.473 153.995 210.036C153.812 209.598 153.533 209.207 153.18 208.89C152.321 208.237 151.257 207.914 150.18 207.98H145.03V214.74H150.22C152.893 214.74 154.233 213.633 154.24 211.42Z" fill="white"/>
<path d="M71.01 83.73H27.35C26.3581 83.73 25.4067 83.3359 24.7053 82.6345C24.0039 81.9331 23.61 80.9819 23.61 79.99C23.6087 79.498 23.7044 79.0106 23.8917 78.5557C24.0791 78.1008 24.3544 77.6872 24.7018 77.3389C25.0492 76.9905 25.462 76.7142 25.9164 76.5256C26.3708 76.3371 26.858 76.24 27.35 76.24H71.01C71.9976 76.2532 72.9401 76.6554 73.6328 77.3594C74.3256 78.0634 74.7127 79.0123 74.71 80C74.7048 80.9825 74.3143 81.9238 73.6223 82.6213C72.9304 83.3189 71.9924 83.7169 71.01 83.73Z" fill="#FF3E4C"/>
<path d="M71.01 106.1H27.35C26.3581 106.1 25.4067 105.706 24.7053 105.005C24.0039 104.303 23.61 103.352 23.61 102.36C23.6087 101.868 23.7044 101.381 23.8917 100.926C24.0791 100.471 24.3544 100.057 24.7018 99.709C25.0492 99.3606 25.462 99.0843 25.9164 98.8958C26.3708 98.7072 26.858 98.6101 27.35 98.6101H71.01C72.0029 98.6128 72.9541 99.0089 73.6552 99.7119C74.3563 100.415 74.75 101.367 74.75 102.36C74.7474 103.351 74.3524 104.301 73.6516 105.002C72.9508 105.703 72.0011 106.097 71.01 106.1Z" fill="#FF3E4C"/>
<path d="M71.01 128.47H27.35C26.858 128.47 26.3708 128.373 25.9164 128.184C25.462 127.996 25.0492 127.719 24.7018 127.371C24.3544 127.023 24.0791 126.609 23.8917 126.154C23.7044 125.699 23.6087 125.212 23.61 124.72C23.61 123.728 24.0039 122.777 24.7053 122.075C25.4067 121.374 26.3581 120.98 27.35 120.98H71.01C72.0011 120.983 72.9508 121.378 73.6516 122.078C74.3524 122.779 74.7474 123.729 74.75 124.72C74.75 125.713 74.3563 126.665 73.6552 127.368C72.9541 128.071 72.0029 128.467 71.01 128.47Z" fill="#FF3E4C"/>
<path d="M71.01 150.84H27.35C26.858 150.84 26.3708 150.743 25.9164 150.554C25.462 150.366 25.0492 150.089 24.7018 149.741C24.3544 149.393 24.0791 148.979 23.8917 148.524C23.7044 148.07 23.6087 147.582 23.61 147.09C23.61 146.098 24.0039 145.147 24.7053 144.445C25.4067 143.744 26.3581 143.35 27.35 143.35H71.01C72.0011 143.353 72.9508 143.747 73.6516 144.448C74.3524 145.149 74.7474 146.099 74.75 147.09C74.75 148.083 74.3563 149.035 73.6552 149.738C72.9541 150.441 72.0029 150.837 71.01 150.84Z" fill="#FF3E4C"/>
<path d="M130.59 83.73H88.0299C87.038 83.73 86.0868 83.3359 85.3854 82.6345C84.684 81.9331 84.2899 80.9819 84.2899 79.99C84.2886 79.498 84.3844 79.0106 84.5718 78.5557C84.7592 78.1008 85.0344 77.6872 85.3818 77.3389C85.7293 76.9905 86.142 76.7142 86.5964 76.5256C87.0509 76.3371 87.5379 76.24 88.0299 76.24H130.59C131.585 76.24 132.538 76.6351 133.242 77.3384C133.945 78.0416 134.34 78.9954 134.34 79.99C134.337 80.9828 133.941 81.9342 133.238 82.6353C132.535 83.3364 131.583 83.73 130.59 83.73Z" fill="#FF3E4C"/>
<path d="M130.59 106.1H88.0299C87.038 106.1 86.0868 105.706 85.3854 105.005C84.684 104.303 84.2899 103.352 84.2899 102.36C84.2886 101.868 84.3844 101.381 84.5718 100.926C84.7592 100.471 85.0344 100.057 85.3818 99.709C85.7293 99.3606 86.142 99.0843 86.5964 98.8958C87.0509 98.7072 87.5379 98.6101 88.0299 98.6101H130.59C131.585 98.6101 132.538 99.005 133.242 99.7083C133.945 100.412 134.34 101.366 134.34 102.36C134.337 103.353 133.941 104.304 133.238 105.005C132.535 105.706 131.583 106.1 130.59 106.1Z" fill="#FF3E4C"/>
<path d="M130.59 128.47H88.0299C87.5379 128.47 87.0509 128.373 86.5964 128.184C86.142 127.996 85.7293 127.719 85.3818 127.371C85.0344 127.023 84.7592 126.609 84.5718 126.154C84.3844 125.699 84.2886 125.212 84.2899 124.72C84.2899 123.728 84.684 122.777 85.3854 122.075C86.0868 121.374 87.038 120.98 88.0299 120.98H130.59C131.583 120.98 132.535 121.374 133.238 122.075C133.941 122.776 134.337 123.727 134.34 124.72C134.34 125.715 133.945 126.668 133.242 127.372C132.538 128.075 131.585 128.47 130.59 128.47Z" fill="#FF3E4C"/>
<path d="M130.59 150.84H88.0299C87.5379 150.84 87.0509 150.743 86.5964 150.554C86.142 150.366 85.7293 150.089 85.3818 149.741C85.0344 149.393 84.7592 148.979 84.5718 148.524C84.3844 148.07 84.2886 147.582 84.2899 147.09C84.2899 146.098 84.684 145.147 85.3854 144.445C86.0868 143.744 87.038 143.35 88.0299 143.35H130.59C131.583 143.35 132.535 143.744 133.238 144.445C133.941 145.146 134.337 146.097 134.34 147.09C134.34 148.085 133.945 149.038 133.242 149.742C132.538 150.445 131.585 150.84 130.59 150.84Z" fill="#FF3E4C"/>
</svg>
