<svg width="201" height="240" viewBox="0 0 201 240" fill="none" xmlns="http://www.w3.org/2000/svg">
<g opacity="0.3">
<path opacity="0.3" d="M139.67 49.24C134.203 49.2347 128.961 47.0606 125.095 43.1947C121.229 39.3288 119.055 34.0871 119.05 28.62V1.85821e-06H26.92C23.3853 -0.00131167 19.8849 0.693768 16.6189 2.04553C13.3529 3.3973 10.3853 5.37928 7.88538 7.87824C5.38549 10.3772 3.40242 13.3442 2.04944 16.6097C0.696459 19.8752 -2.4406e-07 23.3753 0 26.91V189.13C0.0106004 196.262 2.8518 203.098 7.89941 208.136C12.947 213.174 19.7883 216.003 26.92 216H137.52C141.054 216 144.553 215.304 147.818 213.952C151.083 212.599 154.05 210.617 156.548 208.118C159.047 205.619 161.029 202.653 162.382 199.388C163.734 196.123 164.43 192.624 164.43 189.09V49.24H139.67Z" fill="#00C650"/>
</g>
<path d="M164.43 49.24H139.67C134.203 49.2347 128.961 47.0606 125.095 43.1947C121.229 39.3288 119.055 34.0871 119.05 28.62V0L164.43 49.24Z" fill="#00C650"/>
<path d="M183.95 170.6H58.91C50.0403 170.6 42.8501 177.79 42.8501 186.66V223.94C42.8501 232.81 50.0403 240 58.91 240H183.95C192.82 240 200.01 232.81 200.01 223.94V186.66C200.01 177.79 192.82 170.6 183.95 170.6Z" fill="#00C650"/>
<path d="M71.3501 213.37V220.64H63.8201V213.37H71.3501Z" fill="white"/>
<path d="M116.01 190.57L108.82 220.64H99.8201L95.02 200.52L90.17 220.64H81.17L73.98 190.57H81.89L85.76 212.35L91.04 190.57H99.04L104.32 212.35L108.23 190.57H116.01Z" fill="white"/>
<path d="M138.47 215.15H127.19L125.32 220.64H117.67L128.67 190.78H137.05L148.05 220.64H140.31L138.47 215.15ZM136.59 209.62L132.85 198.57L129.07 209.62H136.59Z" fill="white"/>
<path d="M156.5 190.57L163.86 213.2L171.22 190.57H179L168.54 220.64H159.14L148.72 190.57H156.5Z" fill="white"/>
<path d="M120.23 131.92H109.23V87.6601C109.23 86.1775 108.641 84.7557 107.593 83.7074C106.544 82.659 105.123 82.0701 103.64 82.0701H75.64C74.1575 82.0701 72.7356 82.659 71.6873 83.7074C70.6389 84.7557 70.05 86.1775 70.05 87.6601V131.92H59.1001V83.9201C59.1001 80.52 60.4508 77.2592 62.855 74.855C65.2592 72.4508 68.52 71.1001 71.92 71.1001H107.33C110.73 71.1001 113.991 72.4508 116.395 74.855C118.799 77.2592 120.15 80.52 120.15 83.9201L120.23 131.92Z" fill="#00C650"/>
<path d="M107.25 144.9C114.419 144.9 120.23 139.089 120.23 131.92C120.23 124.751 114.419 118.94 107.25 118.94C100.081 118.94 94.27 124.751 94.27 131.92C94.27 139.089 100.081 144.9 107.25 144.9Z" fill="#00C650"/>
<path d="M57.1901 144.9C64.3587 144.9 70.17 139.089 70.17 131.92C70.17 124.751 64.3587 118.94 57.1901 118.94C50.0214 118.94 44.2101 124.751 44.2101 131.92C44.2101 139.089 50.0214 144.9 57.1901 144.9Z" fill="#00C650"/>
</svg>
