<svg width="201" height="240" viewBox="0 0 201 240" fill="none" xmlns="http://www.w3.org/2000/svg">
<g opacity="0.3">
<path opacity="0.3" d="M139.67 49.24C134.203 49.2347 128.961 47.0606 125.095 43.1947C121.229 39.3288 119.055 34.0871 119.05 28.62V1.85821e-06H26.92C23.3853 -0.00131167 19.8849 0.693768 16.6189 2.04553C13.3529 3.3973 10.3853 5.37928 7.88538 7.87824C5.38549 10.3772 3.40242 13.3442 2.04944 16.6097C0.696459 19.8752 -2.4406e-07 23.3753 0 26.91V189.13C0.0106004 196.262 2.8518 203.098 7.89941 208.136C12.947 213.174 19.7883 216.003 26.92 216H137.52C141.054 216 144.553 215.304 147.818 213.952C151.083 212.599 154.05 210.617 156.548 208.118C159.047 205.619 161.029 202.653 162.382 199.388C163.734 196.123 164.43 192.624 164.43 189.09V49.24H139.67Z" fill="#FF3E4C"/>
</g>
<path d="M164.43 49.24H139.67C134.203 49.2347 128.961 47.0606 125.095 43.1947C121.229 39.3288 119.055 34.0871 119.05 28.62V0L164.43 49.24Z" fill="#FF3E4C"/>
<path d="M183.95 170.6H58.91C50.0403 170.6 42.8501 177.79 42.8501 186.66V223.94C42.8501 232.81 50.0403 240 58.91 240H183.95C192.82 240 200.01 232.81 200.01 223.94V186.66C200.01 177.79 192.82 170.6 183.95 170.6Z" fill="#FF3E4C"/>
<path d="M87.38 213.37V220.64H79.86V213.37H87.38Z" fill="white"/>
<path d="M110.78 190.57V196.36H98.4401V203H107.97V208.53H98.4401V220.69H91.17V190.62L110.78 190.57Z" fill="white"/>
<path d="M121.79 215.07H131.49V220.64H114.49V190.57H121.76L121.79 215.07Z" fill="white"/>
<path d="M140.46 190.57L147.82 213.2L155.18 190.57H162.96L152.5 220.64H143.1L132.68 190.57H140.46Z" fill="white"/>
<path d="M119.45 131.91V84.1999C119.451 83.9686 119.431 83.7377 119.39 83.5099C119.387 83.4433 119.387 83.3766 119.39 83.3099C119.39 83.1499 119.3 82.9999 119.25 82.8499L119.16 82.65C119.091 82.5057 119.015 82.3654 118.93 82.2299C118.903 82.1731 118.869 82.1194 118.83 82.0699C118.708 81.889 118.57 81.7184 118.42 81.5599L118.34 81.4999C118.208 81.3668 118.064 81.2463 117.91 81.1399L117.74 81.03C117.61 80.95 117.47 80.8799 117.33 80.8099L117.13 80.7199C116.97 80.6595 116.806 80.6094 116.64 80.5699H116.48C116.253 80.521 116.022 80.4975 115.79 80.4999H48.39C47.4642 80.5847 46.6035 81.012 45.9764 81.6983C45.3493 82.3846 45.0011 83.2803 45 84.21C44.9951 84.2665 44.9951 84.3234 45 84.3799V132.06C44.9758 132.674 45.1708 133.276 45.55 133.76C45.8788 134.313 46.3456 134.772 46.9047 135.091C47.4639 135.41 48.0962 135.579 48.7399 135.58H115.74C116.714 135.57 117.646 135.181 118.338 134.496C119.031 133.811 119.429 132.884 119.45 131.91ZM48.96 89.4799V82.2399H54.8501V89.4799H48.96ZM58.9 89.4799V82.2399H64.79V89.4799H58.9ZM68.84 89.4799V82.2399H74.7299V89.4799H68.84ZM78.78 89.4799V82.2399H84.67V89.4799H78.78ZM88.7201 89.4799V82.2399H94.6099V89.4799H88.7201ZM98.65 89.4799V82.2399H104.54V89.4799H98.65ZM108.59 89.4799V82.2399H114.48V89.4799H108.59ZM47.59 124.59V91.4399H116.81V124.59H47.59ZM48.94 133.78V126.54H54.83V133.78H48.94ZM58.88 133.78V126.54H64.77V133.78H58.88ZM68.82 133.78V126.54H74.71V133.78H68.82ZM78.76 133.78V126.54H84.65V133.78H78.76ZM88.7 133.78V126.54H94.59V133.78H88.7ZM98.63 133.78V126.54H104.52V133.78H98.63ZM108.57 133.78V126.54H114.46V133.78H108.57Z" fill="#FF3E4C"/>
<path d="M90.23 105.56L80.66 100.03C80.1647 99.744 79.6029 99.5934 79.0309 99.5933C78.4589 99.5931 77.897 99.7434 77.4015 100.029C76.906 100.315 76.4944 100.726 76.208 101.221C75.9217 101.716 75.7706 102.278 75.77 102.85V113.91C75.7706 114.482 75.9217 115.044 76.208 115.539C76.4944 116.034 76.906 116.445 77.4015 116.731C77.897 117.017 78.4589 117.167 79.0309 117.167C79.6029 117.167 80.1647 117.016 80.66 116.73L90.23 111.2C90.724 110.913 91.1342 110.502 91.4193 110.007C91.7044 109.512 91.8545 108.951 91.8545 108.38C91.8545 107.809 91.7044 107.248 91.4193 106.753C91.1342 106.258 90.724 105.847 90.23 105.56Z" fill="#FF3E4C"/>
</svg>
