<svg width="201" height="241" viewBox="0 0 201 241" fill="none" xmlns="http://www.w3.org/2000/svg">
<g opacity="0.3">
<path opacity="0.3" d="M139.67 49.25C134.202 49.2421 128.96 47.0657 125.095 43.1982C121.229 39.3308 119.055 34.0881 119.05 28.62V1.85821e-06H26.92C23.3853 -0.00131167 19.8849 0.693768 16.6189 2.04553C13.3529 3.3973 10.3853 5.37922 7.88538 7.87818C5.38549 10.3771 3.40242 13.3441 2.04944 16.6096C0.696459 19.8751 -2.4406e-07 23.3753 0 26.91V189.13C-2.4406e-07 192.665 0.696459 196.165 2.04944 199.43C3.40242 202.696 5.38549 205.663 7.88538 208.162C10.3853 210.661 13.3529 212.643 16.6189 213.995C19.8849 215.346 23.3853 216.041 26.92 216.04H137.52C141.054 216.04 144.553 215.344 147.818 213.992C151.083 212.639 154.05 210.657 156.548 208.158C159.047 205.659 161.029 202.693 162.382 199.428C163.734 196.163 164.43 192.664 164.43 189.13V49.25H139.67Z" fill="#0072FF"/>
</g>
<path d="M164.43 49.25H139.67C134.202 49.2421 128.96 47.0657 125.095 43.1982C121.229 39.3308 119.055 34.0881 119.05 28.62V0L164.43 49.25Z" fill="#0072FF"/>
<path d="M183.95 170.61H58.91C50.0403 170.61 42.8501 177.8 42.8501 186.67V223.95C42.8501 232.82 50.0403 240.01 58.91 240.01H183.95C192.82 240.01 200.01 232.82 200.01 223.95V186.67C200.01 177.8 192.82 170.61 183.95 170.61Z" fill="#0072FF"/>
<path d="M88.9401 213.38V220.65H81.41V213.38H88.9401Z" fill="white"/>
<path d="M99.99 190.58V220.65H92.7201V190.58H99.99Z" fill="white"/>
<path d="M125.41 216.57C124.543 217.951 123.302 219.058 121.83 219.76C120.043 220.598 118.083 221.006 116.11 220.95C113.137 221.068 110.208 220.199 107.78 218.48C106.703 217.676 105.821 216.638 105.201 215.445C104.581 214.252 104.239 212.934 104.2 211.59H111.95C111.999 212.604 112.431 213.563 113.16 214.27C113.88 214.941 114.836 215.301 115.82 215.27C116.629 215.312 117.422 215.036 118.03 214.5C118.297 214.241 118.507 213.93 118.646 213.585C118.786 213.241 118.852 212.871 118.84 212.5C118.851 212.147 118.79 211.796 118.661 211.468C118.532 211.14 118.338 210.841 118.09 210.59C117.561 210.054 116.932 209.626 116.24 209.33C115.5 209.01 114.48 208.62 113.18 208.16C111.586 207.635 110.029 207.003 108.52 206.27C107.282 205.628 106.218 204.694 105.42 203.55C104.499 202.161 104.043 200.515 104.12 198.85C104.078 197.199 104.553 195.577 105.48 194.21C106.43 192.875 107.736 191.836 109.25 191.21C110.996 190.504 112.868 190.163 114.75 190.21C117.612 190.05 120.441 190.891 122.75 192.59C123.731 193.39 124.535 194.385 125.11 195.513C125.685 196.641 126.019 197.876 126.09 199.14H118.22C118.13 198.254 117.746 197.423 117.13 196.78C116.816 196.482 116.445 196.251 116.04 196.102C115.634 195.952 115.202 195.887 114.77 195.91C114.023 195.872 113.288 196.114 112.71 196.59C112.438 196.844 112.227 197.155 112.09 197.501C111.953 197.847 111.895 198.219 111.92 198.59C111.908 199.263 112.164 199.914 112.63 200.4C113.128 200.919 113.727 201.33 114.39 201.61C115.1 201.92 116.12 202.32 117.45 202.8C119.071 203.324 120.649 203.972 122.17 204.74C123.426 205.403 124.506 206.356 125.32 207.52C126.251 208.928 126.713 210.594 126.64 212.28C126.628 213.795 126.203 215.279 125.41 216.57Z" fill="white"/>
<path d="M152.67 192.09C154.955 193.389 156.846 195.282 158.14 197.57C159.493 199.995 160.183 202.733 160.14 205.51C160.195 208.307 159.504 211.068 158.14 213.51C156.842 215.809 154.945 217.714 152.65 219.02C150.312 220.355 147.662 221.045 144.97 221.02C142.278 221.044 139.628 220.354 137.29 219.02C134.996 217.716 133.101 215.811 131.81 213.51C130.441 211.07 129.751 208.307 129.81 205.51C129.758 202.732 130.448 199.991 131.81 197.57C133.108 195.282 135.002 193.388 137.29 192.09C139.628 190.756 142.278 190.066 144.97 190.09C147.668 190.065 150.325 190.755 152.67 192.09ZM139.27 199.19C137.794 200.954 137.043 203.213 137.17 205.51C137.051 207.797 137.801 210.044 139.27 211.8C139.989 212.581 140.869 213.195 141.851 213.599C142.832 214.004 143.89 214.188 144.95 214.14C146.007 214.184 147.06 213.997 148.038 213.593C149.015 213.189 149.893 212.577 150.61 211.8C152.092 210.05 152.851 207.8 152.73 205.51C152.851 203.22 152.1 200.969 150.63 199.21C149.912 198.428 149.031 197.814 148.05 197.41C147.068 197.005 146.01 196.821 144.95 196.87C143.895 196.826 142.843 197.011 141.866 197.411C140.89 197.812 140.011 198.418 139.29 199.19H139.27Z" fill="white"/>
<path d="M78.5 145.6C69.0722 145.589 60.0336 141.839 53.3671 135.173C46.7006 128.506 42.9507 119.468 42.9401 110.04C42.9507 100.612 46.7006 91.5735 53.3671 84.907C60.0336 78.2405 69.0722 74.4906 78.5 74.48C87.9278 74.4906 96.9666 78.2405 103.633 84.907C110.3 91.5735 114.049 100.612 114.06 110.04C114.049 119.468 110.3 128.506 103.633 135.173C96.9666 141.839 87.9278 145.589 78.5 145.6ZM78.5 76.6C69.6442 76.6079 61.1535 80.1294 54.8915 86.3914C48.6295 92.6534 45.108 101.144 45.1001 110C45.1107 118.855 48.633 127.344 54.8944 133.606C61.1558 139.867 69.645 143.389 78.5 143.4C87.355 143.389 95.8443 139.867 102.106 133.606C108.367 127.344 111.889 118.855 111.9 110C111.882 101.151 108.355 92.6706 102.094 86.4172C95.8336 80.1639 87.3489 76.6479 78.5 76.64V76.6Z" fill="#0072FF"/>
<path d="M78.5501 75.37V103.65C76.8571 103.653 75.2343 104.327 74.0381 105.525C72.8419 106.723 72.17 108.347 72.1701 110.04C72.1704 111.152 72.4599 112.244 73.01 113.21L48.64 127.28L48.1001 126.28C45.405 121.256 43.9963 115.642 44 109.94C44 109.66 44 109.4 44 109.14C44.1222 103.233 45.765 97.4571 48.77 92.37C51.76 87.3135 55.9811 83.0959 61.04 80.11C66.126 77.1108 71.8971 75.4683 77.8001 75.34L78.5501 75.37Z" fill="#0072FF"/>
<path d="M113.15 110C113.154 115.959 111.611 121.817 108.67 127C105.586 132.463 101.07 136.981 95.61 140.07C90.413 143.032 84.5318 144.583 78.55 144.57V116.42C80.2326 116.404 81.8411 115.725 83.0262 114.531C84.2114 113.336 84.8774 111.723 84.88 110.04C84.8852 108.911 84.5846 107.802 84.01 106.83L108.52 92.67C111.426 97.6963 113.015 103.375 113.14 109.18C113.15 109.44 113.15 109.7 113.15 110Z" fill="#0072FF"/>
<path d="M78.5 114.4C77.3437 114.4 76.2348 113.941 75.4171 113.123C74.5995 112.305 74.14 111.196 74.14 110.04C74.14 108.883 74.5991 107.773 75.4165 106.953C76.2339 106.134 77.3427 105.673 78.5 105.67C79.6573 105.673 80.7662 106.134 81.5836 106.953C82.401 107.773 82.86 108.883 82.86 110.04C82.86 111.196 82.4007 112.305 81.583 113.123C80.7653 113.941 79.6563 114.4 78.5 114.4ZM78.5 107.84C77.9165 107.84 77.357 108.072 76.9445 108.484C76.5319 108.897 76.3 109.457 76.3 110.04C76.3027 110.623 76.5353 111.181 76.9473 111.593C77.3593 112.005 77.9173 112.237 78.5 112.24C79.0827 112.237 79.6407 112.005 80.0527 111.593C80.4647 111.181 80.6974 110.623 80.7001 110.04C80.7001 109.751 80.6432 109.465 80.5326 109.198C80.422 108.931 80.26 108.689 80.0557 108.484C79.8514 108.28 79.6088 108.118 79.3419 108.007C79.075 107.897 78.7889 107.84 78.5 107.84Z" fill="#0072FF"/>
</svg>
