<svg width="200" height="240" viewBox="0 0 200 240" fill="none" xmlns="http://www.w3.org/2000/svg">
<g opacity="0.3">
<path opacity="0.3" d="M139.71 49.24C134.242 49.2347 128.999 47.0609 125.132 43.1953C121.264 39.3297 119.088 34.0881 119.08 28.62V0H26.9099C19.7729 0 12.9283 2.83514 7.88171 7.88174C2.83511 12.9283 0 19.773 0 26.91V189.13C0.0105984 196.26 2.85042 203.094 7.89587 208.132C12.9413 213.17 19.7799 216 26.9099 216H137.51C144.647 216 151.491 213.165 156.538 208.118C161.585 203.072 164.42 196.227 164.42 189.09V49.24H139.71Z" fill="#FF3E4C"/>
</g>
<path d="M164.42 49.24H139.71C134.242 49.2347 128.999 47.0609 125.132 43.1953C121.264 39.3297 119.088 34.0881 119.08 28.62V0L164.42 49.24Z" fill="#FF3E4C"/>
<path d="M183.94 170.6H58.8999C50.0302 170.6 42.84 177.79 42.84 186.66V223.94C42.84 232.81 50.0302 240 58.8999 240H183.94C192.81 240 200 232.81 200 223.94V186.66C200 177.79 192.81 170.6 183.94 170.6Z" fill="#FF3E4C"/>
<path d="M66.71 213.37V220.64H59.1799V213.37H66.71Z" fill="white"/>
<path d="M89.02 190.57V211.11C89.02 214.26 88.1599 216.68 86.4399 218.39C85.4854 219.272 84.363 219.952 83.1396 220.39C81.9163 220.828 80.6172 221.015 79.3199 220.94C77.8953 221.015 76.47 220.807 75.1261 220.328C73.7822 219.849 72.5465 219.109 71.49 218.15C69.56 216.3 68.6 213.62 68.6 210.15H75.7899C75.7899 212.963 76.8533 214.37 78.98 214.37C80.82 214.37 81.74 213.29 81.74 211.13V190.59L89.02 190.57Z" fill="white"/>
<path d="M112.45 215.15H101.18L99.3099 220.64H91.6499L102.65 190.78H111.03L122.03 220.64H114.29L112.45 215.15ZM110.58 209.62L106.84 198.57L103.05 209.62H110.58Z" fill="white"/>
<path d="M130.49 190.57L137.84 213.2L145.2 190.57H152.99L142.52 220.64H133.12L122.71 190.57H130.49Z" fill="white"/>
<path d="M174.42 215.15H163.15L161.28 220.64H153.62L164.62 190.78H173L184 220.64H176.26L174.42 215.15ZM172.55 209.62L168.81 198.57L165.02 209.62H172.55Z" fill="white"/>
<path d="M67.11 154.14H64.8999C59.7999 154.14 55.7366 152.643 52.71 149.65C49.6833 146.657 48.1733 142.613 48.1799 137.52V121.2C48.1799 114.96 45.6966 111.84 40.73 111.84V104.18C45.6966 104.18 48.1799 101.06 48.1799 94.8199V78.4999C48.1799 73.3999 49.69 69.3532 52.71 66.3599C55.73 63.3666 59.7932 61.8732 64.8999 61.8799H67.11V69.5399H65.6C59.6 69.5399 56.6 72.9299 56.6 79.7099V96.4299C56.5266 102.43 54.1933 106.223 49.6 107.81V108.21C54.1 109.69 56.4333 113.383 56.6 119.29V136.29C56.6 143.07 59.6 146.46 65.6 146.46H67.11V154.14Z" fill="#FF3E4C"/>
<path d="M97.2999 154.14V146.48H98.8099C104.81 146.48 107.81 143.09 107.81 136.31V119.31C107.943 113.397 110.277 109.703 114.81 108.23V107.83C110.237 106.217 107.903 102.423 107.81 96.4499V79.7299C107.81 72.9499 104.81 69.5599 98.8099 69.5599H97.2999V61.8999H99.52C104.62 61.8999 108.68 63.3932 111.7 66.3799C114.72 69.3666 116.233 73.4132 116.24 78.5199V94.8399C116.24 101.08 118.723 104.2 123.69 104.2V111.86C118.723 111.86 116.24 114.98 116.24 121.22V137.54C116.24 142.64 114.727 146.683 111.7 149.67C108.673 152.657 104.613 154.153 99.52 154.16L97.2999 154.14Z" fill="#FF3E4C"/>
<path d="M81.38 86.1699C85.0417 86.1699 88.01 83.2017 88.01 79.54C88.01 75.8784 85.0417 72.9099 81.38 72.9099C77.7184 72.9099 74.75 75.8784 74.75 79.54C74.75 83.2017 77.7184 86.1699 81.38 86.1699Z" fill="#FF3E4C"/>
<path d="M81.38 114.64C85.0417 114.64 88.01 111.672 88.01 108.01C88.01 104.348 85.0417 101.38 81.38 101.38C77.7184 101.38 74.75 104.348 74.75 108.01C74.75 111.672 77.7184 114.64 81.38 114.64Z" fill="#FF3E4C"/>
<path d="M81.38 143.11C85.0417 143.11 88.01 140.142 88.01 136.48C88.01 132.818 85.0417 129.85 81.38 129.85C77.7184 129.85 74.75 132.818 74.75 136.48C74.75 140.142 77.7184 143.11 81.38 143.11Z" fill="#FF3E4C"/>
</svg>
