<svg width="200" height="240" viewBox="0 0 200 240" fill="none" xmlns="http://www.w3.org/2000/svg">
<g opacity="0.3">
<path opacity="0.3" d="M139.67 49.24C134.203 49.2347 128.961 47.0606 125.095 43.1947C121.23 39.3288 119.055 34.0871 119.05 28.62V0H26.9102C19.7732 0 12.9284 2.83517 7.88184 7.88177C2.83523 12.9284 0 19.773 0 26.91V189.13C0.0105984 196.26 2.85054 203.094 7.896 208.132C12.9415 213.17 19.7801 216 26.9102 216H137.51C141.044 216.001 144.544 215.306 147.81 213.954C151.075 212.602 154.042 210.62 156.541 208.121C159.04 205.622 161.022 202.655 162.374 199.39C163.726 196.124 164.421 192.624 164.42 189.09V49.24H139.67Z" fill="#0072FF"/>
</g>
<path d="M164.42 49.24H139.67C134.203 49.2347 128.961 47.0606 125.095 43.1947C121.23 39.3288 119.055 34.0871 119.05 28.62V0L164.42 49.24Z" fill="#0072FF"/>
<path d="M183.94 170.6H58.9001C50.0305 170.6 42.8401 177.79 42.8401 186.66V223.94C42.8401 232.81 50.0305 240 58.9001 240H183.94C192.81 240 200 232.81 200 223.94V186.66C200 177.79 192.81 170.6 183.94 170.6Z" fill="#0072FF"/>
<path d="M73.4102 213.37V220.64H65.8901V213.37H73.4102Z" fill="white"/>
<path d="M111.01 190.79V220.64H103.74V202L97.27 220.67H90.98L84.47 201.96V220.67H77.2V190.82H86.0901L94.21 211.61L102.21 190.82L111.01 190.79Z" fill="white"/>
<path d="M138.04 192.08C140.328 193.379 142.219 195.277 143.51 197.57C144.863 199.991 145.553 202.727 145.51 205.5C145.562 208.297 144.872 211.057 143.51 213.5C142.215 215.799 140.316 217.7 138.02 219C135.682 220.335 133.032 221.025 130.34 221C127.649 221.022 124.999 220.332 122.66 219C120.367 217.7 118.472 215.798 117.18 213.5C115.814 211.059 115.124 208.297 115.18 205.5C115.128 202.726 115.819 199.988 117.18 197.57C118.478 195.279 120.372 193.382 122.66 192.08C124.999 190.748 127.649 190.058 130.34 190.08C133.038 190.055 135.695 190.745 138.04 192.08ZM124.64 199.19C123.16 200.948 122.409 203.206 122.54 205.5C122.419 207.79 123.17 210.04 124.64 211.8C125.359 212.581 126.239 213.195 127.221 213.599C128.202 214.004 129.26 214.188 130.32 214.14C131.377 214.185 132.431 213.999 133.408 213.595C134.386 213.191 135.264 212.578 135.98 211.8C137.468 210.049 138.231 207.795 138.11 205.5C138.227 203.212 137.473 200.964 136 199.21C135.282 198.429 134.401 197.814 133.42 197.41C132.438 197.005 131.38 196.821 130.32 196.87C129.262 196.821 128.205 197.003 127.224 197.403C126.243 197.804 125.361 198.414 124.64 199.19Z" fill="white"/>
<path d="M155.2 190.57L162.57 213.2L169.93 190.57H177.71L167.25 220.64H157.85L147.43 190.57H155.2Z" fill="white"/>
<path d="M78.1802 69.61C67.9959 69.61 58.2285 73.6557 51.0271 80.8571C43.8257 88.0585 39.78 97.8257 39.78 108.01C39.78 118.194 43.8257 127.962 51.0271 135.163C58.2285 142.364 67.9959 146.41 78.1802 146.41C88.3637 146.405 98.1282 142.356 105.327 135.153C112.526 127.95 116.57 118.184 116.57 108C116.565 97.82 112.518 88.0584 105.32 80.86C98.1217 73.6617 88.3602 69.6153 78.1802 69.61ZM78.1802 77.09C80.217 77.09 82.1703 77.8991 83.6106 79.3394C85.0509 80.7797 85.8601 82.7332 85.8601 84.77C85.8601 86.8069 85.0509 88.7603 83.6106 90.2006C82.1703 91.6408 80.217 92.45 78.1802 92.45C76.1433 92.45 74.1898 91.6408 72.7495 90.2006C71.3092 88.7603 70.5 86.8069 70.5 84.77C70.5 82.7332 71.3092 80.7797 72.7495 79.3394C74.1898 77.8991 76.1433 77.09 78.1802 77.09ZM51.4001 92.55C52.4188 90.7865 54.096 89.4998 56.0632 88.9728C58.0304 88.4459 60.1264 88.7218 61.8901 89.74C62.7642 90.2435 63.5305 90.9143 64.1453 91.7141C64.76 92.5138 65.211 93.4268 65.4729 94.4009C65.7348 95.375 65.8023 96.3911 65.6714 97.3913C65.5405 98.3915 65.2137 99.3561 64.71 100.23C63.6894 101.994 62.0103 103.281 60.0415 103.808C58.0727 104.335 55.9752 104.059 54.21 103.04C52.4465 102.021 51.1598 100.344 50.6328 98.3769C50.1059 96.4097 50.382 94.3137 51.4001 92.55ZM61.8901 126.29C61.0162 126.794 60.0514 127.12 59.0513 127.251C58.0511 127.382 57.0352 127.315 56.061 127.053C55.0869 126.791 54.1737 126.34 53.374 125.725C52.5743 125.11 51.9037 124.344 51.4001 123.47C50.382 121.706 50.1059 119.61 50.6328 117.643C51.1598 115.676 52.4465 113.999 54.21 112.98C55.9752 111.961 58.0727 111.685 60.0415 112.212C62.0103 112.739 63.6894 114.026 64.71 115.79C65.7278 117.556 66.0027 119.655 65.4739 121.624C64.9451 123.593 63.656 125.271 61.8901 126.29ZM78.1802 138.94C76.1433 138.94 74.1898 138.131 72.7495 136.691C71.3092 135.25 70.5 133.297 70.5 131.26C70.5 129.223 71.3092 127.27 72.7495 125.829C74.1898 124.389 76.1433 123.58 78.1802 123.58C79.1891 123.579 80.1882 123.776 81.1206 124.162C82.053 124.547 82.9001 125.113 83.6135 125.826C84.3269 126.54 84.8926 127.387 85.2781 128.319C85.6636 129.252 85.8614 130.251 85.8601 131.26C85.8601 133.297 85.0509 135.25 83.6106 136.691C82.1703 138.131 80.217 138.94 78.1802 138.94ZM104.96 123.47C104.457 124.345 103.787 125.112 102.988 125.728C102.188 126.343 101.275 126.795 100.3 127.057C99.3258 127.319 98.3093 127.386 97.3088 127.254C96.3084 127.123 95.3436 126.795 94.47 126.29C92.7058 125.269 91.419 123.59 90.8921 121.622C90.3652 119.653 90.6415 117.555 91.6602 115.79C92.6788 114.026 94.3561 112.74 96.3232 112.213C98.2904 111.686 100.386 111.962 102.15 112.98C103.024 113.483 103.791 114.154 104.405 114.954C105.02 115.754 105.47 116.668 105.731 117.642C105.992 118.616 106.059 119.633 105.926 120.633C105.794 121.633 105.465 122.597 104.96 123.47ZM102.15 103C100.386 104.018 98.2904 104.294 96.3232 103.767C94.3561 103.24 92.6788 101.954 91.6602 100.19C90.642 98.4263 90.3659 96.3303 90.8928 94.3632C91.4198 92.396 92.7065 90.7186 94.47 89.7C96.2337 88.6818 98.3297 88.4058 100.297 88.9328C102.264 89.4598 103.941 90.7465 104.96 92.51C105.465 93.383 105.794 94.3471 105.926 95.3472C106.059 96.3472 105.992 97.3635 105.731 98.338C105.47 99.3124 105.02 100.226 104.405 101.026C103.791 101.826 103.024 102.497 102.15 103Z" fill="#0072FF"/>
<path d="M114.31 138.48C113.782 138.478 113.256 138.421 112.74 138.31C108.47 137.31 106.74 132.77 106.74 132.58C106.68 132.417 106.653 132.243 106.661 132.069C106.669 131.895 106.711 131.725 106.785 131.567C106.86 131.41 106.965 131.269 107.095 131.153C107.224 131.036 107.376 130.947 107.54 130.89C107.702 130.831 107.874 130.805 108.047 130.813C108.219 130.821 108.388 130.863 108.544 130.936C108.7 131.009 108.84 131.113 108.956 131.241C109.072 131.368 109.162 131.518 109.22 131.68C109.22 131.74 110.51 135.11 113.35 135.74C115.77 136.27 118.9 134.74 122.41 131.2C122.533 131.077 122.679 130.979 122.839 130.913C122.999 130.846 123.171 130.812 123.345 130.812C123.519 130.812 123.691 130.846 123.851 130.913C124.012 130.979 124.157 131.077 124.28 131.2C124.526 131.447 124.663 131.782 124.663 132.13C124.663 132.478 124.526 132.813 124.28 133.06C120.65 136.67 117.32 138.48 114.31 138.48Z" fill="#0072FF"/>
</svg>
