<svg width="200" height="240" viewBox="0 0 200 240" fill="none" xmlns="http://www.w3.org/2000/svg">
<g opacity="0.3">
<path opacity="0.3" d="M139.67 49.24C134.202 49.2347 128.959 47.0609 125.092 43.1953C121.224 39.3297 119.048 34.0881 119.04 28.62V0H26.9099C19.7729 0 12.9282 2.83514 7.88159 7.88174C2.83499 12.9283 0 19.773 0 26.91V189.13C0.0105984 196.26 2.8503 203.094 7.89575 208.132C12.9412 213.17 19.7799 216 26.9099 216H137.51C144.647 216 151.491 213.165 156.538 208.118C161.585 203.072 164.42 196.227 164.42 189.09V49.24H139.67Z" fill="#FF9908"/>
</g>
<path d="M164.42 49.24H139.67C134.202 49.2347 128.959 47.0609 125.092 43.1953C121.224 39.3297 119.048 34.0881 119.04 28.62V0L164.42 49.24Z" fill="#FF9908"/>
<path d="M183.94 170.6H58.8999C50.0302 170.6 42.8398 177.79 42.8398 186.66V223.94C42.8398 232.81 50.0302 240 58.8999 240H183.94C192.81 240 200 232.81 200 223.94V186.66C200 177.79 192.81 170.6 183.94 170.6Z" fill="#FF9908"/>
<path d="M85.8999 213.37V220.64H78.3699V213.37H85.8999Z" fill="white"/>
<path d="M105.14 220.64L98.6299 209.28H96.97V220.64H89.7V190.57H102.14C104.208 190.512 106.261 190.933 108.14 191.8C109.682 192.533 110.97 193.71 111.84 195.18C112.677 196.683 113.101 198.38 113.07 200.1C113.126 202.108 112.491 204.075 111.27 205.67C109.923 207.285 108.069 208.395 106.01 208.82L113.16 220.64H105.14ZM96.97 204.31H101.48C102.632 204.396 103.773 204.039 104.67 203.31C105.025 202.934 105.297 202.488 105.47 202.001C105.642 201.513 105.71 200.995 105.67 200.48C105.705 199.969 105.635 199.457 105.463 198.975C105.291 198.493 105.021 198.052 104.67 197.68C104.234 197.312 103.729 197.034 103.185 196.863C102.641 196.691 102.068 196.629 101.5 196.68H96.99L96.97 204.31Z" fill="white"/>
<path d="M137.14 216.56C136.273 217.941 135.031 219.048 133.56 219.75C131.772 220.588 129.813 220.996 127.84 220.94C124.866 221.063 121.936 220.194 119.51 218.47C118.433 217.666 117.551 216.628 116.931 215.435C116.311 214.242 115.969 212.924 115.93 211.58H123.67C123.729 212.594 124.164 213.55 124.89 214.26C125.607 214.93 126.559 215.289 127.54 215.26C128.352 215.304 129.149 215.027 129.76 214.49C130.023 214.229 130.23 213.917 130.368 213.573C130.506 213.229 130.571 212.86 130.56 212.49C130.571 212.138 130.511 211.788 130.384 211.46C130.257 211.132 130.065 210.832 129.82 210.58C129.289 210.046 128.661 209.619 127.97 209.32C127.23 209 126.21 208.61 124.91 208.15C123.316 207.625 121.759 206.993 120.25 206.26C119.012 205.618 117.948 204.684 117.15 203.54C116.229 202.151 115.773 200.505 115.85 198.84C115.808 197.189 116.283 195.567 117.21 194.2C118.158 192.868 119.461 191.829 120.97 191.2C122.719 190.494 124.594 190.154 126.48 190.2C129.342 190.045 132.168 190.886 134.48 192.58C135.46 193.381 136.263 194.376 136.838 195.504C137.413 196.632 137.748 197.866 137.82 199.13H129.95C129.852 198.246 129.47 197.418 128.86 196.77C128.546 196.473 128.175 196.242 127.769 196.093C127.364 195.943 126.932 195.878 126.5 195.9C125.753 195.862 125.018 196.104 124.44 196.58C124.167 196.833 123.955 197.144 123.818 197.49C123.681 197.836 123.624 198.209 123.65 198.58C123.639 199.251 123.89 199.901 124.35 200.39C124.854 200.907 125.455 201.318 126.12 201.6C126.83 201.91 127.85 202.31 129.18 202.79C130.801 203.314 132.379 203.962 133.9 204.73C135.155 205.395 136.234 206.348 137.05 207.51C137.983 208.921 138.445 210.59 138.37 212.28C138.352 213.791 137.927 215.27 137.14 216.56Z" fill="white"/>
<path d="M162.77 216.56C161.904 217.939 160.667 219.045 159.2 219.75C157.412 220.588 155.453 220.996 153.48 220.94C150.503 221.063 147.57 220.194 145.14 218.47C144.065 217.664 143.186 216.625 142.568 215.432C141.95 214.24 141.609 212.923 141.57 211.58H149.31C149.365 212.593 149.796 213.549 150.52 214.26C151.241 214.929 152.196 215.289 153.18 215.26C153.989 215.304 154.783 215.027 155.39 214.49C155.657 214.231 155.866 213.92 156.006 213.575C156.145 213.231 156.211 212.861 156.2 212.49C156.209 212.138 156.148 211.789 156.021 211.461C155.894 211.133 155.703 210.834 155.46 210.58C154.928 210.048 154.3 209.62 153.61 209.32C152.87 209 151.85 208.61 150.54 208.15C148.948 207.627 147.395 206.995 145.89 206.26C144.648 205.618 143.581 204.685 142.78 203.54C141.866 202.148 141.415 200.503 141.49 198.84C141.448 197.189 141.923 195.567 142.85 194.2C143.795 192.866 145.099 191.826 146.61 191.2C148.359 190.494 150.234 190.154 152.12 190.2C154.981 190.044 157.809 190.885 160.12 192.58C161.102 193.379 161.906 194.374 162.482 195.502C163.057 196.63 163.39 197.866 163.46 199.13H155.59C155.502 198.245 155.122 197.415 154.51 196.77C154.196 196.473 153.825 196.242 153.419 196.093C153.013 195.943 152.582 195.877 152.15 195.9C151.402 195.862 150.668 196.104 150.09 196.58C149.817 196.833 149.604 197.144 149.468 197.49C149.331 197.836 149.274 198.209 149.3 198.58C149.284 199.252 149.536 199.903 150 200.39C150.504 200.907 151.105 201.318 151.77 201.6C152.47 201.91 153.49 202.31 154.83 202.79C156.451 203.314 158.029 203.962 159.55 204.73C160.804 205.395 161.884 206.348 162.7 207.51C163.633 208.92 164.095 210.59 164.02 212.28C164 213.794 163.568 215.274 162.77 216.56Z" fill="white"/>
<path d="M57.8599 139.61C61.8639 139.61 65.1099 136.364 65.1099 132.36C65.1099 128.356 61.8639 125.11 57.8599 125.11C53.8558 125.11 50.6099 128.356 50.6099 132.36C50.6099 136.364 53.8558 139.61 57.8599 139.61Z" fill="#FF9908"/>
<path d="M50.6099 97V106.45C59.4038 106.461 67.8347 109.959 74.053 116.177C80.2713 122.395 83.7692 130.826 83.7798 139.62H93.23C93.2167 128.321 88.7221 117.488 80.7322 109.498C72.7422 101.508 61.9093 97.0132 50.6099 97Z" fill="#FF9908"/>
<path d="M113.81 139.61H104.36C104.344 125.359 98.676 111.697 88.5994 101.62C78.5227 91.5438 64.8604 85.8758 50.6099 85.8599V76.4099C67.3659 76.4284 83.4303 83.0929 95.2786 94.9412C107.127 106.79 113.791 122.854 113.81 139.61Z" fill="#FF9908"/>
</svg>
