<svg width="201" height="240" viewBox="0 0 201 240" fill="none" xmlns="http://www.w3.org/2000/svg">
<g opacity="0.3">
<path opacity="0.3" d="M139.67 49.24C134.203 49.2347 128.961 47.0606 125.095 43.1947C121.229 39.3288 119.055 34.0871 119.05 28.62V0H26.92C19.7804 0 12.9331 2.83616 7.88464 7.88464C2.83616 12.9331 0 19.7804 0 26.92V189.13C0 196.27 2.83616 203.117 7.88464 208.165C12.9331 213.214 19.7804 216.05 26.92 216.05H137.52C141.055 216.05 144.555 215.354 147.82 214.001C151.086 212.648 154.053 210.665 156.552 208.165C159.051 205.665 161.033 202.697 162.384 199.431C163.736 196.165 164.431 192.665 164.43 189.13V49.25L139.67 49.24Z" fill="#FF9908"/>
</g>
<path d="M164.43 49.24H139.67C134.203 49.2347 128.961 47.0606 125.095 43.1947C121.229 39.3288 119.055 34.0871 119.05 28.62V0L164.43 49.24Z" fill="#FF9908"/>
<path d="M183.95 170.6H58.91C50.0403 170.6 42.85 177.79 42.85 186.66V223.94C42.85 232.81 50.0403 240 58.91 240H183.95C192.82 240 200.01 232.81 200.01 223.94V186.66C200.01 177.79 192.82 170.6 183.95 170.6Z" fill="#FF9908"/>
<path d="M80 213.37V220.65H72.47V213.37H80Z" fill="white"/>
<path d="M104.18 216.56C103.32 217.943 102.081 219.051 100.61 219.75C98.8202 220.592 96.8571 221 94.88 220.94C91.908 221.061 88.9792 220.197 86.55 218.48C85.4733 217.676 84.5928 216.638 83.9745 215.445C83.3562 214.251 83.0162 212.933 82.98 211.59H90.72C90.7753 212.603 91.2067 213.559 91.93 214.27C92.6499 214.941 93.6061 215.301 94.59 215.27C95.3978 215.316 96.1912 215.043 96.8 214.51C97.0667 214.251 97.2766 213.94 97.4161 213.595C97.5555 213.251 97.6216 212.881 97.61 212.51C97.6207 212.156 97.5598 211.803 97.4309 211.473C97.3021 211.144 97.1079 210.843 96.86 210.59C96.3328 210.054 95.7039 209.629 95.01 209.34C94.27 209.013 93.25 208.623 91.95 208.17C90.3562 207.645 88.7995 207.013 87.2901 206.28C86.0491 205.637 84.9847 204.7 84.19 203.55C83.2674 202.162 82.812 200.515 82.8901 198.85C82.848 197.202 83.3237 195.583 84.25 194.22C85.1968 192.883 86.5044 191.842 88.0201 191.22C89.7657 190.514 91.6376 190.173 93.5201 190.22C96.3822 190.06 99.2108 190.901 101.52 192.6C102.483 193.383 103.277 194.354 103.851 195.455C104.425 196.556 104.769 197.762 104.86 199H96.99C96.8996 198.114 96.516 197.283 95.9001 196.64C95.5865 196.342 95.2155 196.111 94.8097 195.962C94.4039 195.812 93.9719 195.747 93.5401 195.77C92.7926 195.732 92.0578 195.974 91.48 196.45C91.2084 196.704 90.9966 197.015 90.86 197.361C90.7234 197.707 90.6653 198.079 90.69 198.45C90.6833 198.782 90.7427 199.112 90.8645 199.421C90.9864 199.73 91.1685 200.012 91.4001 200.25C91.8978 200.772 92.4966 201.187 93.1601 201.47C93.8701 201.78 94.89 202.18 96.22 202.66C97.8412 203.179 99.4193 203.825 100.94 204.59C102.194 205.26 103.273 206.216 104.09 207.38C105.021 208.788 105.483 210.454 105.41 212.14C105.426 213.7 104.999 215.232 104.18 216.56Z" fill="white"/>
<path d="M115.05 190.58L122.4 213.2L129.76 190.58H137.55L127.08 220.65H117.68L107.26 190.58H115.05Z" fill="white"/>
<path d="M163.74 193C166.164 194.82 167.797 197.501 168.3 200.49H160.6C160.097 199.417 159.282 198.521 158.26 197.92C157.115 197.24 155.802 196.893 154.47 196.92C153.435 196.878 152.402 197.064 151.447 197.465C150.491 197.865 149.635 198.472 148.94 199.24C147.477 200.991 146.734 203.232 146.86 205.51C146.86 208.37 147.59 210.567 149.05 212.1C149.871 212.896 150.849 213.512 151.922 213.908C152.995 214.304 154.139 214.472 155.28 214.4C156.912 214.43 158.509 213.928 159.83 212.97C161.179 211.962 162.154 210.534 162.6 208.91H153.41V203.68H168.68V210.87C168.093 212.658 167.17 214.318 165.96 215.76C164.644 217.309 163.011 218.558 161.17 219.42C159.087 220.382 156.814 220.861 154.52 220.82C151.73 220.893 148.97 220.227 146.52 218.89C144.279 217.63 142.454 215.742 141.27 213.46C139.998 210.989 139.362 208.239 139.42 205.46C139.37 202.698 140.006 199.966 141.27 197.51C142.452 195.233 144.269 193.347 146.5 192.08C148.913 190.751 151.636 190.085 154.39 190.15C157.737 190.029 161.029 191.033 163.74 193Z" fill="white"/>
<path d="M123.03 127.73H120.54C120.527 117.638 116.511 107.964 109.374 100.829C102.237 93.6936 92.5618 89.6806 82.47 89.67C72.3791 89.6806 62.7046 93.6939 55.5692 100.829C48.4339 107.965 44.4206 117.639 44.41 127.73H41.91C41.9233 116.978 46.201 106.67 53.8049 99.0679C61.4088 91.4659 71.7178 87.1906 82.47 87.1801C93.2222 87.1906 103.531 91.4659 111.135 99.0679C118.739 106.67 123.017 116.978 123.03 127.73Z" fill="#FF9908"/>
<path d="M140.1 87.1801H24.84V89.67H140.1V87.1801Z" fill="#FF9908"/>
<path d="M47.1401 123.75H39.17V131.72H47.1401V123.75Z" fill="#FF9908"/>
<path d="M125.76 123.75H117.79V131.72H125.76V123.75Z" fill="#FF9908"/>
<path d="M86.45 84.3101H78.48V92.28H86.45V84.3101Z" fill="#FF9908"/>
<path d="M24.71 92.29C26.9136 92.29 28.7 90.5037 28.7 88.3C28.7 86.0964 26.9136 84.3101 24.71 84.3101C22.5063 84.3101 20.72 86.0964 20.72 88.3C20.72 90.5037 22.5063 92.29 24.71 92.29Z" fill="#FF9908"/>
<path d="M139.72 92.29C141.924 92.29 143.71 90.5037 143.71 88.3C143.71 86.0964 141.924 84.3101 139.72 84.3101C137.516 84.3101 135.73 86.0964 135.73 88.3C135.73 90.5037 137.516 92.29 139.72 92.29Z" fill="#FF9908"/>
</svg>
