<svg width="200" height="240" viewBox="0 0 200 240" fill="none" xmlns="http://www.w3.org/2000/svg">
<g opacity="0.3">
<path opacity="0.3" d="M139.67 49.25C134.202 49.2447 128.959 47.0709 125.092 43.2053C121.224 39.3398 119.048 34.0979 119.04 28.6299V0H26.9099C19.7729 0 12.9282 2.83523 7.88159 7.88184C2.83499 12.9284 0 19.7729 0 26.9099V189.13C0 196.267 2.83499 203.112 7.88159 208.158C12.9282 213.205 19.7729 216.04 26.9099 216.04H137.51C144.647 216.04 151.491 213.205 156.538 208.158C161.585 203.112 164.42 196.267 164.42 189.13V49.25H139.67Z" fill="#0072FF"/>
</g>
<path d="M164.42 49.25H139.67C134.202 49.2447 128.959 47.0709 125.092 43.2053C121.224 39.3398 119.048 34.0979 119.04 28.6299V0L164.42 49.25Z" fill="#0072FF"/>
<path d="M130.6 83.73H27.3499C26.3588 83.7273 25.4091 83.3324 24.7083 82.6316C24.0074 81.9308 23.6125 80.9811 23.6099 79.99C23.6099 78.9972 24.0035 78.0448 24.7046 77.3418C25.4057 76.6388 26.357 76.2426 27.3499 76.24H130.6C131.593 76.2426 132.544 76.6388 133.245 77.3418C133.946 78.0448 134.34 78.9972 134.34 79.99C134.337 80.9811 133.942 81.9308 133.241 82.6316C132.541 83.3324 131.591 83.7273 130.6 83.73Z" fill="#0072FF"/>
<path d="M130.6 106.1H27.3499C26.3588 106.097 25.4091 105.703 24.7083 105.002C24.0074 104.301 23.6125 103.351 23.6099 102.36C23.6099 101.367 24.0035 100.415 24.7046 99.7119C25.4057 99.0089 26.357 98.6128 27.3499 98.6101H130.6C131.593 98.6128 132.544 99.0089 133.245 99.7119C133.946 100.415 134.34 101.367 134.34 102.36C134.337 103.351 133.942 104.301 133.241 105.002C132.541 105.703 131.591 106.097 130.6 106.1Z" fill="#0072FF"/>
<path d="M130.6 128.47H27.3499C26.357 128.467 25.4057 128.071 24.7046 127.368C24.0035 126.665 23.6099 125.713 23.6099 124.72C23.6125 123.729 24.0074 122.779 24.7083 122.078C25.4091 121.378 26.3588 120.983 27.3499 120.98H130.6C131.591 120.983 132.541 121.378 133.241 122.078C133.942 122.779 134.337 123.729 134.34 124.72C134.34 125.713 133.946 126.665 133.245 127.368C132.544 128.071 131.593 128.467 130.6 128.47Z" fill="#0072FF"/>
<path d="M130.6 150.83H27.3499C26.3579 150.83 25.4067 150.436 24.7053 149.735C24.0039 149.033 23.6099 148.082 23.6099 147.09C23.6099 146.097 24.0035 145.145 24.7046 144.442C25.4057 143.739 26.357 143.343 27.3499 143.34H130.6C131.593 143.343 132.544 143.739 133.245 144.442C133.946 145.145 134.34 146.097 134.34 147.09C134.34 148.082 133.946 149.033 133.244 149.735C132.543 150.436 131.592 150.83 130.6 150.83Z" fill="#0072FF"/>
<path d="M183.94 170.61H58.8999C50.0302 170.61 42.8398 177.8 42.8398 186.67V223.95C42.8398 232.82 50.0302 240.01 58.8999 240.01H183.94C192.81 240.01 200 232.82 200 223.95V186.67C200 177.8 192.81 170.61 183.94 170.61Z" fill="#0072FF"/>
<path d="M85.5598 213.38V220.65H78.0298V213.38H85.5598Z" fill="white"/>
<path d="M110.95 190.58V196.37H102.78V220.65H95.47V196.37H87.3799V190.58H110.95Z" fill="white"/>
<path d="M132.26 220.65L125.92 211.29L120.47 220.65H112.14L121.75 205.17L111.84 190.58H120.47L126.64 199.64L131.96 190.58H140.25L130.77 205.72L140.89 220.65H132.26Z" fill="white"/>
<path d="M165.3 190.58V196.37H157.14V220.65H149.82V196.37H141.74V190.58H165.3Z" fill="white"/>
</svg>
