<svg width="200" height="240" viewBox="0 0 200 240" fill="none" xmlns="http://www.w3.org/2000/svg">
<g opacity="0.3">
<path opacity="0.3" d="M139.67 49.24C134.203 49.2347 128.961 47.0606 125.095 43.1947C121.23 39.3288 119.055 34.0871 119.05 28.62V0H26.9102C19.7732 0 12.9284 2.83514 7.88184 7.88174C2.83523 12.9283 0 19.773 0 26.91V189.13C0.0105984 196.26 2.85054 203.094 7.896 208.132C12.9415 213.17 19.7801 216 26.9102 216H137.51C144.647 216 151.492 213.165 156.538 208.118C161.585 203.072 164.42 196.227 164.42 189.09V49.24H139.67Z" fill="#A140FF"/>
</g>
<path d="M164.42 49.24H139.67C134.203 49.2347 128.961 47.0606 125.095 43.1947C121.23 39.3288 119.055 34.0871 119.05 28.62V0L164.42 49.24Z" fill="#A140FF"/>
<path d="M183.94 170.6H58.9001C50.0305 170.6 42.8401 177.79 42.8401 186.66V223.94C42.8401 232.81 50.0305 240 58.9001 240H183.94C192.81 240 200 232.81 200 223.94V186.66C200 177.79 192.81 170.6 183.94 170.6Z" fill="#A140FF"/>
<path d="M80.8401 213.37V220.64H73.3101V213.37H80.8401Z" fill="white"/>
<path d="M102.87 220.64L96.53 211.28L91.0901 220.64H82.75L92.3701 205.16L82.46 190.57H91.0901L97.26 199.63L102.57 190.57H110.87L101.38 205.71L111.51 220.64H102.87Z" fill="white"/>
<path d="M148.13 190.78V220.64H140.85V202L134.39 220.67H128.09L121.59 201.96V220.67H114.31V190.81H123.2L131.33 211.61L139.28 190.81L148.13 190.78Z" fill="white"/>
<path d="M160.42 215.07H170.12V220.64H153.12V190.57H160.4L160.42 215.07Z" fill="white"/>
<path d="M40.51 114.19C40.4962 113.76 40.6265 113.338 40.8802 112.99C41.1835 112.6 41.5481 112.263 41.96 111.99C42.5838 111.667 43.2288 111.387 43.8902 111.15L45.8201 110.35L53.5401 107.1C54.6134 106.6 56.6134 105.767 59.5401 104.6L63.21 103.1L64.5301 102.63L64.76 102.53C64.8227 102.517 64.8873 102.517 64.95 102.53C65.098 102.465 65.2583 102.431 65.4202 102.43C65.7299 102.413 66.0398 102.458 66.3318 102.563C66.6238 102.668 66.892 102.83 67.1201 103.04C67.3137 103.222 67.4676 103.442 67.5725 103.687C67.6775 103.931 67.7311 104.194 67.73 104.46V107C67.7205 107.471 67.5747 107.93 67.3101 108.32C67.0319 108.756 66.6169 109.086 66.1302 109.26L50.3601 115.71L66.1302 122.16C66.5997 122.354 67.0075 122.672 67.3101 123.08C67.585 123.454 67.7322 123.906 67.73 124.37V126.91C67.7303 127.179 67.6764 127.445 67.5716 127.692C67.4668 127.94 67.3133 128.163 67.1201 128.35C66.8956 128.567 66.6285 128.735 66.336 128.843C66.0434 128.951 65.7317 128.998 65.4202 128.98C65.2594 128.978 65.1 128.948 64.95 128.89L64.5301 128.75L63.21 128.28L59.5701 126.8L53.5701 124.31L45.8501 121.06L43.9202 120.26C43.3002 120.01 42.65 119.73 41.99 119.41C41.5805 119.219 41.2297 118.922 40.9746 118.549C40.7195 118.176 40.5695 117.741 40.5401 117.29L40.51 114.19Z" fill="#A140FF"/>
<path d="M87.6201 131.7C87.1196 131.712 86.6248 131.592 86.1858 131.351C85.7468 131.111 85.3791 130.759 85.1201 130.33C84.9053 130.022 84.7337 129.685 84.6101 129.33L84.28 128.44L77.0801 112.53L76.5601 111.35C75.9601 110.07 74.8001 107.53 73.0801 103.73C70.8467 98.8968 69.73 96.2467 69.73 95.7801C69.7303 95.4989 69.7945 95.2214 69.9175 94.9685C70.0405 94.7156 70.2192 94.494 70.4402 94.3201C70.9391 93.8983 71.577 93.6772 72.23 93.7001H74.5701C75.0631 93.6916 75.5496 93.8139 75.98 94.0545C76.4103 94.2952 76.7691 94.6456 77.02 95.0701L77.54 96.0701L77.8701 96.9601L79.75 101.1L85.0701 112.87L85.77 114.37L89.0701 121.62C90.3351 124.221 91.4504 126.892 92.4102 129.62C92.4084 129.9 92.3436 130.175 92.2207 130.426C92.0978 130.677 91.9196 130.897 91.7 131.07C91.2015 131.493 90.5633 131.714 89.9102 131.69L87.6201 131.7Z" fill="#A140FF"/>
<path d="M96.33 129C96.0107 129.021 95.6904 128.976 95.3893 128.867C95.0882 128.759 94.8128 128.59 94.58 128.37C94.1953 127.989 93.976 127.472 93.9699 126.93V124.39C93.9653 123.929 94.1053 123.478 94.37 123.1C94.6692 122.68 95.0871 122.36 95.57 122.18L111.39 115.73L95.57 109.29C95.0896 109.08 94.6825 108.732 94.4001 108.29C94.1275 107.911 93.9773 107.457 93.9699 106.99V104.41C93.9665 104.146 94.0182 103.885 94.1215 103.642C94.2248 103.399 94.3776 103.181 94.57 103C95.0401 102.577 95.6585 102.358 96.2899 102.39C96.4361 102.388 96.5805 102.422 96.7099 102.49C96.7959 102.475 96.8839 102.475 96.9699 102.49L97.1801 102.59C97.1201 102.59 97.5399 102.71 98.4499 103.06L102.17 104.56C101.977 104.473 103.977 105.307 108.17 107.06C110.457 108 113.077 109.113 116.03 110.4L116.78 110.68L117.86 111.11C118.497 111.336 119.112 111.617 119.7 111.95C120.12 112.142 120.479 112.446 120.736 112.829C120.994 113.212 121.141 113.659 121.16 114.12V117.22C121.151 117.645 121.011 118.057 120.76 118.4C120.481 118.788 120.119 119.109 119.7 119.34C119.13 119.62 118.46 119.92 117.7 120.24L115.7 121.04L98.2799 128.33C97.7799 128.58 97.48 128.74 97.39 128.8L97.1999 128.94L96.33 129Z" fill="#A140FF"/>
</svg>
