<?xml version="1.0" encoding="utf-8"?>
<!-- Generator: Adobe Illustrator 28.2.0, SVG Export Plug-In . SVG Version: 6.00 Build 0)  -->
<svg version="1.1" id="Layer_1" xmlns="http://www.w3.org/2000/svg" xmlns:xlink="http://www.w3.org/1999/xlink" x="0px" y="0px"
	 viewBox="0 0 24 24" style="enable-background:new 0 0 24 24;" xml:space="preserve">
<style type="text/css">
	.st0{fill:none;stroke:#8D8D8D;stroke-width:1.25;stroke-linecap:round;stroke-linejoin:round;}
	.st1{fill:none;stroke:#0191DF;stroke-width:1.25;stroke-linecap:round;stroke-linejoin:round;}
</style>
<path class="st0" d="M9,2h6c0.6,0,1,0.4,1,1v2c0,0.6-0.4,1-1,1H9C8.4,6,8,5.6,8,5V3C8,2.4,8.4,2,9,2z"/>
<path class="st0" d="M16,4h2c1.1,0,2,0.9,2,2v1.4 M8,4H6C4.9,4,4,4.9,4,6v14c0,1.1,0.9,2,2,2h3.5h0.2"/>
<path class="st1" d="M20.6,22.3h-7c-1,0-1.8-0.8-1.8-1.8v-9c0-1,0.8-1.8,1.8-1.8h7c1,0,1.8,0.8,1.8,1.8v9
	C22.4,21.5,21.6,22.3,20.6,22.3z"/>
</svg>
