<?xml version="1.0" encoding="utf-8"?>
<!-- Generator: Adobe Illustrator 28.2.0, SVG Export Plug-In . SVG Version: 6.00 Build 0)  -->
<svg version="1.1" id="Layer_1" xmlns="http://www.w3.org/2000/svg" xmlns:xlink="http://www.w3.org/1999/xlink" x="0px" y="0px"
	 viewBox="0 0 24 24" style="enable-background:new 0 0 24 24;" xml:space="preserve">
<style type="text/css">
	.st0{fill:#0191DF;}
	.st1{fill:none;stroke:#8D8D8D;stroke-width:1.25;stroke-linecap:round;stroke-linejoin:round;stroke-dasharray:3.8446,2.8835;}
</style>
<g>
	<path class="st0" d="M8.7,11.2H6.9c-1.3,0-2.3-1-2.3-2.3V7.1c0-1.3,1-2.3,2.3-2.3h1.8c1.3,0,2.3,1,2.3,2.3v1.8
		C11,10.1,10,11.2,8.7,11.2z"/>
	<path class="st0" d="M8.7,19.2H6.9c-1.3,0-2.3-1-2.3-2.3v-1.8c0-1.3,1-2.3,2.3-2.3h1.8c1.3,0,2.3,1,2.3,2.3v1.8
		C11,18.2,10,19.2,8.7,19.2z"/>
	<path class="st0" d="M17.1,19.2h-1.8c-1.3,0-2.3-1-2.3-2.3v-1.8c0-1.3,1-2.3,2.3-2.3h1.8c1.3,0,2.3,1,2.3,2.3v1.8
		C19.4,18.2,18.4,19.2,17.1,19.2z"/>
	<path class="st0" d="M17.1,11.2h-1.8c-1.3,0-2.3-1-2.3-2.3V7.1c0-1.3,1-2.3,2.3-2.3h1.8c1.3,0,2.3,1,2.3,2.3v1.8
		C19.4,10.1,18.4,11.2,17.1,11.2z"/>
</g>
<g>
	<path class="st1" d="M18.3,22.1H5.7c-2.1,0-3.8-1.7-3.8-3.8V5.7c0-2.1,1.7-3.8,3.8-3.8h12.6c2.1,0,3.8,1.7,3.8,3.8v12.6
		C22.1,20.4,20.4,22.1,18.3,22.1z"/>
</g>
</svg>
